%TF.GenerationSoftware,KiCad,Pcbnew,(5.1.9)-1*%
%TF.CreationDate,2021-05-25T12:28:25-04:00*%
%TF.ProjectId,Alarm Clock Kit,416c6172-6d20-4436-9c6f-636b204b6974,rev?*%
%TF.SameCoordinates,Original*%
%TF.FileFunction,Soldermask,Bot*%
%TF.FilePolarity,Negative*%
%FSLAX46Y46*%
G04 Gerber Fmt 4.6, Leading zero omitted, Abs format (unit mm)*
G04 Created by KiCad (PCBNEW (5.1.9)-1) date 2021-05-25 12:28:25*
%MOMM*%
%LPD*%
G01*
G04 APERTURE LIST*
%ADD10O,1.600000X1.600000*%
%ADD11R,1.600000X1.600000*%
%ADD12C,1.600000*%
%ADD13C,2.200000*%
%ADD14R,1.700000X1.700000*%
%ADD15O,1.700000X1.700000*%
%ADD16C,2.500000*%
%ADD17R,2.500000X2.500000*%
%ADD18C,1.524000*%
%ADD19C,3.300000*%
%ADD20C,1.800000*%
%ADD21R,1.800000X1.800000*%
%ADD22C,4.000000*%
%ADD23R,2.170000X2.170000*%
%ADD24C,1.000000*%
G04 APERTURE END LIST*
D10*
%TO.C,SW7*%
X135220000Y-132580000D03*
X132680000Y-124960000D03*
X132680000Y-132580000D03*
D11*
X135220000Y-124960000D03*
%TD*%
D12*
%TO.C,C1*%
X98400000Y-114200000D03*
X103400000Y-114200000D03*
%TD*%
D13*
%TO.C,SW6*%
X109750000Y-103250000D03*
X109750000Y-96750000D03*
X114250000Y-103250000D03*
X114250000Y-96750000D03*
%TD*%
%TO.C,SW5*%
X101750000Y-103250000D03*
X101750000Y-96750000D03*
X106250000Y-103250000D03*
X106250000Y-96750000D03*
%TD*%
%TO.C,SW4*%
X93750000Y-103250000D03*
X93750000Y-96750000D03*
X98250000Y-103250000D03*
X98250000Y-96750000D03*
%TD*%
%TO.C,SW3*%
X85750000Y-103250000D03*
X85750000Y-96750000D03*
X90250000Y-103250000D03*
X90250000Y-96750000D03*
%TD*%
D14*
%TO.C,J1*%
X131140000Y-75210000D03*
D15*
X131140000Y-77750000D03*
X131140000Y-80290000D03*
X131140000Y-82830000D03*
%TD*%
D16*
%TO.C,LS1*%
X125400000Y-104100000D03*
D17*
X140400000Y-104100000D03*
%TD*%
D18*
%TO.C,U1*%
X74190000Y-92290000D03*
X74190000Y-89750000D03*
X74190000Y-87210000D03*
X74190000Y-84670000D03*
X74190000Y-82130000D03*
X74190000Y-79590000D03*
X74190000Y-77050000D03*
X74190000Y-74510000D03*
X56410000Y-92290000D03*
X56410000Y-89750000D03*
X56410000Y-87210000D03*
X56410000Y-84670000D03*
X56410000Y-82130000D03*
X56410000Y-79590000D03*
X56410000Y-77050000D03*
X56410000Y-74510000D03*
%TD*%
D19*
%TO.C, *%
X146000000Y-66500000D03*
%TD*%
%TO.C, *%
X146000000Y-133500000D03*
%TD*%
%TO.C, *%
X54000000Y-133500000D03*
%TD*%
%TO.C, *%
X54400000Y-66800000D03*
%TD*%
D11*
%TO.C,A1*%
X99700000Y-118100000D03*
D10*
X66680000Y-133340000D03*
X97160000Y-118100000D03*
X69220000Y-133340000D03*
X94620000Y-118100000D03*
X71760000Y-133340000D03*
X92080000Y-118100000D03*
X74300000Y-133340000D03*
X89540000Y-118100000D03*
X76840000Y-133340000D03*
X87000000Y-118100000D03*
X79380000Y-133340000D03*
X84460000Y-118100000D03*
X81920000Y-133340000D03*
X81920000Y-118100000D03*
X84460000Y-133340000D03*
X79380000Y-118100000D03*
X87000000Y-133340000D03*
X76840000Y-118100000D03*
X89540000Y-133340000D03*
X74300000Y-118100000D03*
X92080000Y-133340000D03*
X71760000Y-118100000D03*
X94620000Y-133340000D03*
X69220000Y-118100000D03*
X97160000Y-133340000D03*
X66680000Y-118100000D03*
X99700000Y-133340000D03*
X64140000Y-118100000D03*
X64140000Y-133340000D03*
%TD*%
D20*
%TO.C,D1*%
X75200000Y-97630000D03*
D21*
X75200000Y-100170000D03*
%TD*%
D12*
%TO.C,R1*%
X68400000Y-92800000D03*
X68400000Y-82800000D03*
%TD*%
%TO.C,R2*%
X60800000Y-82600000D03*
X60800000Y-92600000D03*
%TD*%
%TO.C,R3*%
X70000000Y-112100000D03*
X70000000Y-102100000D03*
%TD*%
D22*
%TO.C,RV1*%
X65790000Y-103300000D03*
X56290000Y-103300000D03*
D20*
X63540000Y-110800000D03*
X61040000Y-110800000D03*
X58540000Y-110800000D03*
%TD*%
D13*
%TO.C,SW1*%
X111450000Y-128050000D03*
X111450000Y-134550000D03*
X106950000Y-128050000D03*
X106950000Y-134550000D03*
%TD*%
%TO.C,SW2*%
X116550000Y-134650000D03*
X116550000Y-128150000D03*
X121050000Y-134650000D03*
X121050000Y-128150000D03*
%TD*%
D16*
%TO.C,BT1*%
X121346000Y-119350000D03*
D23*
X141346000Y-119350000D03*
%TD*%
D11*
%TO.C,U2*%
X115220000Y-112560000D03*
D10*
X107600000Y-120180000D03*
X112680000Y-112560000D03*
X110140000Y-120180000D03*
X110140000Y-112560000D03*
X112680000Y-120180000D03*
X107600000Y-112560000D03*
X115220000Y-120180000D03*
%TD*%
D24*
%TO.C,Y1*%
X112880000Y-108010000D03*
X112880000Y-109910000D03*
%TD*%
M02*
