%TF.GenerationSoftware,KiCad,Pcbnew,(5.1.9)-1*%
%TF.CreationDate,2021-05-25T12:28:24-04:00*%
%TF.ProjectId,Alarm Clock Kit,416c6172-6d20-4436-9c6f-636b204b6974,rev?*%
%TF.SameCoordinates,Original*%
%TF.FileFunction,Copper,L2,Bot*%
%TF.FilePolarity,Positive*%
%FSLAX46Y46*%
G04 Gerber Fmt 4.6, Leading zero omitted, Abs format (unit mm)*
G04 Created by KiCad (PCBNEW (5.1.9)-1) date 2021-05-25 12:28:24*
%MOMM*%
%LPD*%
G01*
G04 APERTURE LIST*
%TA.AperFunction,ComponentPad*%
%ADD10O,1.600000X1.600000*%
%TD*%
%TA.AperFunction,ComponentPad*%
%ADD11R,1.600000X1.600000*%
%TD*%
%TA.AperFunction,ComponentPad*%
%ADD12C,1.600000*%
%TD*%
%TA.AperFunction,ComponentPad*%
%ADD13C,2.200000*%
%TD*%
%TA.AperFunction,ComponentPad*%
%ADD14R,1.700000X1.700000*%
%TD*%
%TA.AperFunction,ComponentPad*%
%ADD15O,1.700000X1.700000*%
%TD*%
%TA.AperFunction,ComponentPad*%
%ADD16C,2.500000*%
%TD*%
%TA.AperFunction,ComponentPad*%
%ADD17R,2.500000X2.500000*%
%TD*%
%TA.AperFunction,ComponentPad*%
%ADD18C,1.524000*%
%TD*%
%TA.AperFunction,ComponentPad*%
%ADD19C,1.800000*%
%TD*%
%TA.AperFunction,ComponentPad*%
%ADD20R,1.800000X1.800000*%
%TD*%
%TA.AperFunction,WasherPad*%
%ADD21C,4.000000*%
%TD*%
%TA.AperFunction,ComponentPad*%
%ADD22R,2.170000X2.170000*%
%TD*%
%TA.AperFunction,ComponentPad*%
%ADD23C,1.000000*%
%TD*%
%TA.AperFunction,ViaPad*%
%ADD24C,0.800000*%
%TD*%
%TA.AperFunction,Conductor*%
%ADD25C,0.250000*%
%TD*%
G04 APERTURE END LIST*
D10*
%TO.P,SW7,4*%
%TO.N,GND*%
X135220000Y-132580000D03*
%TO.P,SW7,2*%
%TO.N,ALARM_EN*%
X132680000Y-124960000D03*
%TO.P,SW7,3*%
%TO.N,GND*%
X132680000Y-132580000D03*
D11*
%TO.P,SW7,1*%
%TO.N,D06*%
X135220000Y-124960000D03*
%TD*%
D12*
%TO.P,C1,1*%
%TO.N,GND*%
X98400000Y-114200000D03*
%TO.P,C1,2*%
%TO.N,5V+*%
X103400000Y-114200000D03*
%TD*%
D13*
%TO.P,SW6,2*%
%TO.N,GND*%
X109750000Y-103250000D03*
X109750000Y-96750000D03*
%TO.P,SW6,1*%
%TO.N,D04*%
X114250000Y-103250000D03*
X114250000Y-96750000D03*
%TD*%
%TO.P,SW5,2*%
%TO.N,GND*%
X101750000Y-103250000D03*
X101750000Y-96750000D03*
%TO.P,SW5,1*%
%TO.N,D04*%
X106250000Y-103250000D03*
X106250000Y-96750000D03*
%TD*%
%TO.P,SW4,2*%
%TO.N,GND*%
X93750000Y-103250000D03*
X93750000Y-96750000D03*
%TO.P,SW4,1*%
%TO.N,D04*%
X98250000Y-103250000D03*
X98250000Y-96750000D03*
%TD*%
%TO.P,SW3,2*%
%TO.N,GND*%
X85750000Y-103250000D03*
X85750000Y-96750000D03*
%TO.P,SW3,1*%
%TO.N,D04*%
X90250000Y-103250000D03*
X90250000Y-96750000D03*
%TD*%
D14*
%TO.P,J1,1*%
%TO.N,D03*%
X131140000Y-75210000D03*
D15*
%TO.P,J1,2*%
%TO.N,D02*%
X131140000Y-77750000D03*
%TO.P,J1,3*%
%TO.N,5V+*%
X131140000Y-80290000D03*
%TO.P,J1,4*%
%TO.N,GND*%
X131140000Y-82830000D03*
%TD*%
D16*
%TO.P,LS1,1*%
%TO.N,SPKR-*%
X125400000Y-104100000D03*
D17*
%TO.P,LS1,2*%
%TO.N,SPKR+*%
X140400000Y-104100000D03*
%TD*%
D18*
%TO.P,U1,1*%
%TO.N,5V+*%
X74190000Y-92290000D03*
%TO.P,U1,2*%
%TO.N,Net-(R1-Pad1)*%
X74190000Y-89750000D03*
%TO.P,U1,3*%
%TO.N,Net-(R2-Pad1)*%
X74190000Y-87210000D03*
%TO.P,U1,4*%
%TO.N,Phono_Out_R*%
X74190000Y-84670000D03*
%TO.P,U1,5*%
%TO.N,Phono_Out_L*%
X74190000Y-82130000D03*
%TO.P,U1,6*%
%TO.N,SPKR+*%
X74190000Y-79590000D03*
%TO.P,U1,7*%
%TO.N,GND*%
X74190000Y-77050000D03*
%TO.P,U1,8*%
%TO.N,SPKR-*%
X74190000Y-74510000D03*
%TO.P,U1,16*%
%TO.N,Net-(U1-Pad16)*%
X56410000Y-92290000D03*
%TO.P,U1,15*%
%TO.N,Net-(U1-Pad15)*%
X56410000Y-89750000D03*
%TO.P,U1,14*%
%TO.N,Net-(U1-Pad14)*%
X56410000Y-87210000D03*
%TO.P,U1,13*%
%TO.N,Net-(U1-Pad13)*%
X56410000Y-84670000D03*
%TO.P,U1,12*%
%TO.N,Net-(U1-Pad12)*%
X56410000Y-82130000D03*
%TO.P,U1,11*%
%TO.N,Net-(U1-Pad11)*%
X56410000Y-79590000D03*
%TO.P,U1,10*%
%TO.N,GND*%
X56410000Y-77050000D03*
%TO.P,U1,9*%
%TO.N,Net-(U1-Pad9)*%
X56410000Y-74510000D03*
%TD*%
D11*
%TO.P,A1,1*%
%TO.N,TX*%
X99700000Y-118100000D03*
D10*
%TO.P,A1,17*%
%TO.N,Net-(A1-Pad17)*%
X66680000Y-133340000D03*
%TO.P,A1,2*%
%TO.N,RX*%
X97160000Y-118100000D03*
%TO.P,A1,18*%
%TO.N,AREF*%
X69220000Y-133340000D03*
%TO.P,A1,3*%
%TO.N,RESET*%
X94620000Y-118100000D03*
%TO.P,A1,19*%
%TO.N,A0*%
X71760000Y-133340000D03*
%TO.P,A1,4*%
%TO.N,GND*%
X92080000Y-118100000D03*
%TO.P,A1,20*%
%TO.N,A1*%
X74300000Y-133340000D03*
%TO.P,A1,5*%
%TO.N,D02*%
X89540000Y-118100000D03*
%TO.P,A1,21*%
%TO.N,A2*%
X76840000Y-133340000D03*
%TO.P,A1,6*%
%TO.N,D03*%
X87000000Y-118100000D03*
%TO.P,A1,22*%
%TO.N,A3*%
X79380000Y-133340000D03*
%TO.P,A1,7*%
%TO.N,D04*%
X84460000Y-118100000D03*
%TO.P,A1,23*%
%TO.N,RTC_SDA*%
X81920000Y-133340000D03*
%TO.P,A1,8*%
%TO.N,D05*%
X81920000Y-118100000D03*
%TO.P,A1,24*%
%TO.N,RTC_SCL*%
X84460000Y-133340000D03*
%TO.P,A1,9*%
%TO.N,D06*%
X79380000Y-118100000D03*
%TO.P,A1,25*%
%TO.N,A6*%
X87000000Y-133340000D03*
%TO.P,A1,10*%
%TO.N,ALARM_EN*%
X76840000Y-118100000D03*
%TO.P,A1,26*%
%TO.N,A7*%
X89540000Y-133340000D03*
%TO.P,A1,11*%
%TO.N,D08*%
X74300000Y-118100000D03*
%TO.P,A1,27*%
%TO.N,5V+*%
X92080000Y-133340000D03*
%TO.P,A1,12*%
%TO.N,D09*%
X71760000Y-118100000D03*
%TO.P,A1,28*%
%TO.N,RESET*%
X94620000Y-133340000D03*
%TO.P,A1,13*%
%TO.N,D10*%
X69220000Y-118100000D03*
%TO.P,A1,29*%
%TO.N,GND*%
X97160000Y-133340000D03*
%TO.P,A1,14*%
%TO.N,DFPLAYER_RX*%
X66680000Y-118100000D03*
%TO.P,A1,30*%
%TO.N,Net-(A1-Pad30)*%
X99700000Y-133340000D03*
%TO.P,A1,15*%
%TO.N,DFPLAYER_TX*%
X64140000Y-118100000D03*
%TO.P,A1,16*%
%TO.N,BLINK*%
X64140000Y-133340000D03*
%TD*%
D19*
%TO.P,D1,2*%
%TO.N,BLINK*%
X75200000Y-97630000D03*
D20*
%TO.P,D1,1*%
%TO.N,Net-(D1-Pad1)*%
X75200000Y-100170000D03*
%TD*%
D12*
%TO.P,R1,2*%
%TO.N,DFPLAYER_RX*%
X68400000Y-92800000D03*
%TO.P,R1,1*%
%TO.N,Net-(R1-Pad1)*%
X68400000Y-82800000D03*
%TD*%
%TO.P,R2,1*%
%TO.N,Net-(R2-Pad1)*%
X60800000Y-82600000D03*
%TO.P,R2,2*%
%TO.N,DFPLAYER_TX*%
X60800000Y-92600000D03*
%TD*%
%TO.P,R3,2*%
%TO.N,GND*%
X70000000Y-112100000D03*
%TO.P,R3,1*%
%TO.N,Net-(D1-Pad1)*%
X70000000Y-102100000D03*
%TD*%
D21*
%TO.P,RV1,*%
%TO.N,*%
X65790000Y-103300000D03*
X56290000Y-103300000D03*
D19*
%TO.P,RV1,1*%
%TO.N,5V+*%
X63540000Y-110800000D03*
%TO.P,RV1,2*%
%TO.N,A0*%
X61040000Y-110800000D03*
%TO.P,RV1,3*%
%TO.N,GND*%
X58540000Y-110800000D03*
%TD*%
D13*
%TO.P,SW1,1*%
%TO.N,D09*%
X111450000Y-128050000D03*
X111450000Y-134550000D03*
%TO.P,SW1,2*%
%TO.N,GND*%
X106950000Y-128050000D03*
X106950000Y-134550000D03*
%TD*%
%TO.P,SW2,2*%
%TO.N,GND*%
X116550000Y-134650000D03*
X116550000Y-128150000D03*
%TO.P,SW2,1*%
%TO.N,D08*%
X121050000Y-134650000D03*
X121050000Y-128150000D03*
%TD*%
D16*
%TO.P,BT1,1*%
%TO.N,Net-(BT1-Pad1)*%
X121346000Y-119350000D03*
D22*
%TO.P,BT1,2*%
%TO.N,GND*%
X141346000Y-119350000D03*
%TD*%
D11*
%TO.P,U2,1*%
%TO.N,Net-(U2-Pad1)*%
X115220000Y-112560000D03*
D10*
%TO.P,U2,5*%
%TO.N,RTC_SDA*%
X107600000Y-120180000D03*
%TO.P,U2,2*%
%TO.N,Net-(U2-Pad2)*%
X112680000Y-112560000D03*
%TO.P,U2,6*%
%TO.N,RTC_SCL*%
X110140000Y-120180000D03*
%TO.P,U2,3*%
%TO.N,Net-(BT1-Pad1)*%
X110140000Y-112560000D03*
%TO.P,U2,7*%
%TO.N,D10*%
X112680000Y-120180000D03*
%TO.P,U2,4*%
%TO.N,GND*%
X107600000Y-112560000D03*
%TO.P,U2,8*%
%TO.N,5V+*%
X115220000Y-120180000D03*
%TD*%
D23*
%TO.P,Y1,1*%
%TO.N,Net-(U2-Pad1)*%
X112880000Y-108010000D03*
%TO.P,Y1,2*%
%TO.N,Net-(U2-Pad2)*%
X112880000Y-109910000D03*
%TD*%
D24*
%TO.N,RESET*%
X94600000Y-124500000D03*
%TO.N,GND*%
X70000000Y-114300000D03*
X58540000Y-116560000D03*
%TO.N,D02*%
X89600000Y-115300000D03*
X127400000Y-77800000D03*
%TO.N,D03*%
X87000000Y-115300000D03*
X127400000Y-75200000D03*
%TO.N,5V+*%
X127500000Y-80300000D03*
X92080000Y-130980000D03*
X77600000Y-92300000D03*
X56250000Y-97050000D03*
X103330000Y-117630000D03*
X82804000Y-91694000D03*
%TO.N,Net-(R1-Pad1)*%
X76800000Y-89800000D03*
X68400000Y-85000000D03*
%TO.N,Net-(R2-Pad1)*%
X76700000Y-87200000D03*
X70400000Y-85900000D03*
%TO.N,DFPLAYER_RX*%
X68500000Y-95200000D03*
X66600000Y-114600000D03*
%TO.N,DFPLAYER_TX*%
X60800000Y-95300000D03*
X64100000Y-114600000D03*
%TO.N,D10*%
X81990000Y-120520000D03*
%TO.N,BLINK*%
X64100000Y-130800000D03*
X67900000Y-126600000D03*
%TO.N,RTC_SDA*%
X81960000Y-130380000D03*
X83450000Y-121124971D03*
%TO.N,RTC_SCL*%
X84460000Y-130380000D03*
X86620000Y-120495000D03*
%TD*%
D25*
%TO.N,RESET*%
X94600000Y-118120000D02*
X94620000Y-118100000D01*
X94600000Y-124500000D02*
X94600000Y-118120000D01*
%TO.N,GND*%
X70000000Y-114300000D02*
X70000000Y-115000000D01*
X59250000Y-115850000D02*
X58540000Y-116560000D01*
X69150000Y-115850000D02*
X59250000Y-115850000D01*
X70000000Y-115000000D02*
X69150000Y-115850000D01*
%TO.N,D02*%
X91836410Y-77800000D02*
X127400000Y-77800000D01*
X87500000Y-82136410D02*
X91836410Y-77800000D01*
X87500000Y-82136410D02*
X87500000Y-82172000D01*
X87500000Y-82172000D02*
X80968010Y-88703990D01*
X80968010Y-88703990D02*
X80968010Y-107509600D01*
X80968010Y-107509600D02*
X87504410Y-114046000D01*
X89030000Y-114046000D02*
X89600000Y-114616000D01*
X87504410Y-114046000D02*
X89030000Y-114046000D01*
X89600000Y-115300000D02*
X89600000Y-114616000D01*
%TO.N,D03*%
X127400000Y-75200000D02*
X124600000Y-75200000D01*
X124600000Y-75200000D02*
X122450010Y-77349990D01*
X91650010Y-77349990D02*
X91100000Y-77900000D01*
X122450010Y-77349990D02*
X91650010Y-77349990D01*
X87000000Y-115300000D02*
X87000000Y-114178000D01*
X87000000Y-114178000D02*
X80518000Y-107696000D01*
X80518000Y-88482000D02*
X87294000Y-81706000D01*
X80518000Y-107696000D02*
X80518000Y-88482000D01*
X87294000Y-81706000D02*
X91100000Y-77900000D01*
X87000000Y-82000000D02*
X87294000Y-81706000D01*
%TO.N,5V+*%
X103600000Y-117900000D02*
X103600000Y-129700000D01*
X102320000Y-130980000D02*
X92080000Y-130980000D01*
X103600000Y-129700000D02*
X102320000Y-130980000D01*
X77600000Y-92300000D02*
X77600000Y-93700000D01*
X77600000Y-93700000D02*
X76800000Y-94500000D01*
X76774999Y-94474999D02*
X57425001Y-94474999D01*
X76800000Y-94500000D02*
X76774999Y-94474999D01*
X57425001Y-94474999D02*
X56300000Y-95600000D01*
X56300000Y-97000000D02*
X56250000Y-97050000D01*
X56300000Y-95600000D02*
X56300000Y-97000000D01*
X103330000Y-117630000D02*
X103600000Y-117900000D01*
X123450010Y-78250010D02*
X125500000Y-80300000D01*
X92022810Y-78250010D02*
X123450010Y-78250010D01*
X88138000Y-82134820D02*
X92022810Y-78250010D01*
X81418020Y-88890390D02*
X88138000Y-82170410D01*
X125500000Y-80300000D02*
X127500000Y-80300000D01*
X87632820Y-113538000D02*
X81418020Y-107323200D01*
X88138000Y-82170410D02*
X88138000Y-82134820D01*
X81788000Y-91694000D02*
X81418020Y-92063980D01*
X82804000Y-91694000D02*
X81788000Y-91694000D01*
X81418020Y-92063980D02*
X81418020Y-88890390D01*
X81418020Y-107323200D02*
X81418020Y-92063980D01*
X103330000Y-117630000D02*
X101700000Y-116000000D01*
X88838000Y-113538000D02*
X89538000Y-113538000D01*
X88838000Y-113538000D02*
X87632820Y-113538000D01*
X92000000Y-116000000D02*
X92400000Y-116000000D01*
X89538000Y-113538000D02*
X92000000Y-116000000D01*
X101700000Y-116000000D02*
X92400000Y-116000000D01*
%TO.N,Net-(R1-Pad1)*%
X76800000Y-89800000D02*
X75500000Y-88500000D01*
X75500000Y-88500000D02*
X69200000Y-88500000D01*
X68300000Y-82900000D02*
X68400000Y-82800000D01*
X68400000Y-85000000D02*
X68400000Y-87700000D01*
X69200000Y-88500000D02*
X68450000Y-87750000D01*
%TO.N,Net-(R2-Pad1)*%
X76700000Y-87200000D02*
X75400000Y-85900000D01*
X75400000Y-85900000D02*
X70400000Y-85900000D01*
%TO.N,DFPLAYER_RX*%
X67200000Y-96500000D02*
X68500000Y-95200000D01*
X65000000Y-96500000D02*
X67200000Y-96500000D01*
X62100000Y-99400000D02*
X65000000Y-96500000D01*
X62100000Y-104200000D02*
X62100000Y-99400000D01*
X66600000Y-114600000D02*
X66599999Y-114034314D01*
X66599999Y-108699999D02*
X66450000Y-108550000D01*
X66599999Y-114034314D02*
X66599999Y-108699999D01*
X66450000Y-108550000D02*
X62100000Y-104200000D01*
X66600000Y-108700000D02*
X66450000Y-108550000D01*
%TO.N,DFPLAYER_TX*%
X66149990Y-112550010D02*
X64100000Y-114600000D01*
X61649990Y-104386400D02*
X66149990Y-108886400D01*
X61649990Y-96549990D02*
X61649990Y-104386400D01*
X66149990Y-108886400D02*
X66149990Y-112550010D01*
X61450000Y-96350000D02*
X61649990Y-96549990D01*
X60800000Y-95700000D02*
X61100000Y-96000000D01*
X60800000Y-95300000D02*
X60800000Y-95700000D01*
X61100000Y-96000000D02*
X61450000Y-96350000D01*
X60900000Y-95800000D02*
X61100000Y-96000000D01*
%TO.N,D10*%
X69220000Y-118100000D02*
X69220000Y-119620000D01*
X70120000Y-120520000D02*
X70950000Y-120520000D01*
X69220000Y-119620000D02*
X70120000Y-120520000D01*
X70950000Y-120520000D02*
X70780000Y-120520000D01*
X81990000Y-120520000D02*
X70950000Y-120520000D01*
%TO.N,BLINK*%
X67900000Y-127000000D02*
X67900000Y-126600000D01*
X64100000Y-130800000D02*
X67900000Y-127000000D01*
%TO.N,RTC_SDA*%
X81960000Y-122614971D02*
X83450000Y-121124971D01*
X81960000Y-130380000D02*
X81960000Y-122614971D01*
%TO.N,RTC_SCL*%
X84460000Y-122623934D02*
X85958963Y-121124971D01*
X84460000Y-130380000D02*
X84460000Y-122623934D01*
X85990029Y-121124971D02*
X86620000Y-120495000D01*
X85958963Y-121124971D02*
X85990029Y-121124971D01*
%TD*%
M02*
