M48
; DRILL file {KiCad (5.1.9)-1} date 05/25/21 12:28:27
; FORMAT={-:-/ absolute / inch / decimal}
; #@! TF.CreationDate,2021-05-25T12:28:27-04:00
; #@! TF.GenerationSoftware,Kicad,Pcbnew,(5.1.9)-1
; #@! TF.FileFunction,Plated,1,2,PTH
FMAT,2
INCH
T1C0.0157
T2C0.0197
T3C0.0300
T4C0.0315
T5C0.0354
T6C0.0394
T7C0.0461
T8C0.0591
%
G90
G05
T1
X2.2146Y-3.8209
X2.3047Y-4.589
X2.3937Y-3.752
X2.5236Y-4.5118
X2.5236Y-5.1496
X2.622Y-4.5118
X2.6732Y-4.9843
X2.6929Y-3.3465
X2.6969Y-3.748
X2.7559Y-4.5
X2.7717Y-3.3819
X3.0197Y-3.4331
X3.0236Y-3.5354
X3.0551Y-3.6339
X3.2268Y-5.1331
X3.228Y-4.7449
X3.26Y-3.61
X3.2854Y-4.7687
X3.3252Y-5.1331
X3.4102Y-4.7439
X3.4252Y-4.5394
X3.5276Y-4.5394
X3.6252Y-5.1567
X3.7244Y-4.9016
X4.0681Y-4.6311
X5.0157Y-2.9606
X5.0157Y-3.063
X5.0197Y-3.1614
T2
X4.4441Y-4.2524
X4.4441Y-4.3272
T3
X2.2209Y-2.9335
X2.2209Y-3.0335
X2.2209Y-3.1335
X2.2209Y-3.2335
X2.2209Y-3.3335
X2.2209Y-3.4335
X2.2209Y-3.5335
X2.2209Y-3.6335
X2.9209Y-2.9335
X2.9209Y-3.0335
X2.9209Y-3.1335
X2.9209Y-3.2335
X2.9209Y-3.3335
X2.9209Y-3.4335
X2.9209Y-3.5335
X2.9209Y-3.6335
T4
X2.3937Y-3.252
X2.3937Y-3.6457
X2.6929Y-3.2598
X2.6929Y-3.6535
X2.7559Y-4.0197
X2.7559Y-4.4134
X3.874Y-4.4961
X4.0709Y-4.4961
X4.2362Y-4.4315
X4.2362Y-4.7315
X4.3362Y-4.4315
X4.3362Y-4.7315
X4.4362Y-4.4315
X4.4362Y-4.7315
X4.5362Y-4.4315
X4.5362Y-4.7315
X5.2236Y-4.9197
X5.2236Y-5.2197
X5.3236Y-4.9197
X5.3236Y-5.2197
T5
X2.9606Y-3.8437
X2.9606Y-3.9437
T6
X2.3047Y-4.3622
X2.4031Y-4.3622
X2.5016Y-4.3622
X2.5252Y-4.6496
X2.5252Y-5.2496
X2.6252Y-4.6496
X2.6252Y-5.2496
X2.7252Y-4.6496
X2.7252Y-5.2496
X2.8252Y-4.6496
X2.8252Y-5.2496
X2.9252Y-4.6496
X2.9252Y-5.2496
X3.0252Y-4.6496
X3.0252Y-5.2496
X3.1252Y-4.6496
X3.1252Y-5.2496
X3.2252Y-4.6496
X3.2252Y-5.2496
X3.3252Y-4.6496
X3.3252Y-5.2496
X3.4252Y-4.6496
X3.4252Y-5.2496
X3.5252Y-4.6496
X3.5252Y-5.2496
X3.6252Y-4.6496
X3.6252Y-5.2496
X3.7252Y-4.6496
X3.7252Y-5.2496
X3.8252Y-4.6496
X3.8252Y-5.2496
X3.9252Y-4.6496
X3.9252Y-5.2496
X5.163Y-2.961
X5.163Y-3.061
X5.163Y-3.161
X5.163Y-3.261
T7
X5.5648Y-4.6988
T8
X3.376Y-3.8091
X3.376Y-4.065
X3.5531Y-3.8091
X3.5531Y-4.065
X3.6909Y-3.8091
X3.6909Y-4.065
X3.8681Y-3.8091
X3.8681Y-4.065
X4.0059Y-3.8091
X4.0059Y-4.065
X4.1831Y-3.8091
X4.1831Y-4.065
X4.2106Y-5.0413
X4.2106Y-5.2972
X4.3209Y-3.8091
X4.3209Y-4.065
X4.3878Y-5.0413
X4.3878Y-5.2972
X4.498Y-3.8091
X4.498Y-4.065
X4.5886Y-5.0453
X4.5886Y-5.3012
X4.7657Y-5.0453
X4.7657Y-5.3012
X4.7774Y-4.6988
X4.937Y-4.0984
X5.5276Y-4.0984
T0
M30
