%TF.GenerationSoftware,KiCad,Pcbnew,(5.1.9)-1*%
%TF.CreationDate,2021-05-25T12:28:25-04:00*%
%TF.ProjectId,Alarm Clock Kit,416c6172-6d20-4436-9c6f-636b204b6974,rev?*%
%TF.SameCoordinates,Original*%
%TF.FileFunction,Legend,Bot*%
%TF.FilePolarity,Positive*%
%FSLAX46Y46*%
G04 Gerber Fmt 4.6, Leading zero omitted, Abs format (unit mm)*
G04 Created by KiCad (PCBNEW (5.1.9)-1) date 2021-05-25 12:28:25*
%MOMM*%
%LPD*%
G01*
G04 APERTURE LIST*
%ADD10C,0.150000*%
%ADD11C,0.200000*%
%ADD12C,0.010000*%
%ADD13C,0.100000*%
%ADD14C,1.000000*%
%ADD15C,0.500000*%
G04 APERTURE END LIST*
D10*
X140478571Y-126381904D02*
X140021428Y-126381904D01*
X140250000Y-127181904D02*
X140250000Y-126381904D01*
X139754761Y-127181904D02*
X139754761Y-126381904D01*
X139754761Y-126762857D02*
X139297619Y-126762857D01*
X139297619Y-127181904D02*
X139297619Y-126381904D01*
X138916666Y-126762857D02*
X138650000Y-126762857D01*
X138535714Y-127181904D02*
X138916666Y-127181904D01*
X138916666Y-126381904D01*
X138535714Y-126381904D01*
X137583333Y-127181904D02*
X137583333Y-126381904D01*
X137392857Y-126381904D01*
X137278571Y-126420000D01*
X137202380Y-126496190D01*
X137164285Y-126572380D01*
X137126190Y-126724761D01*
X137126190Y-126839047D01*
X137164285Y-126991428D01*
X137202380Y-127067619D01*
X137278571Y-127143809D01*
X137392857Y-127181904D01*
X137583333Y-127181904D01*
X136783333Y-127181904D02*
X136783333Y-126381904D01*
X136402380Y-127181904D02*
X136402380Y-126381904D01*
X136097619Y-126381904D01*
X136021428Y-126420000D01*
X135983333Y-126458095D01*
X135945238Y-126534285D01*
X135945238Y-126648571D01*
X135983333Y-126724761D01*
X136021428Y-126762857D01*
X136097619Y-126800952D01*
X136402380Y-126800952D01*
X135030952Y-127143809D02*
X134916666Y-127181904D01*
X134726190Y-127181904D01*
X134650000Y-127143809D01*
X134611904Y-127105714D01*
X134573809Y-127029523D01*
X134573809Y-126953333D01*
X134611904Y-126877142D01*
X134650000Y-126839047D01*
X134726190Y-126800952D01*
X134878571Y-126762857D01*
X134954761Y-126724761D01*
X134992857Y-126686666D01*
X135030952Y-126610476D01*
X135030952Y-126534285D01*
X134992857Y-126458095D01*
X134954761Y-126420000D01*
X134878571Y-126381904D01*
X134688095Y-126381904D01*
X134573809Y-126420000D01*
X134307142Y-126381904D02*
X134116666Y-127181904D01*
X133964285Y-126610476D01*
X133811904Y-127181904D01*
X133621428Y-126381904D01*
X133316666Y-127181904D02*
X133316666Y-126381904D01*
X133050000Y-126381904D02*
X132592857Y-126381904D01*
X132821428Y-127181904D02*
X132821428Y-126381904D01*
X131869047Y-127105714D02*
X131907142Y-127143809D01*
X132021428Y-127181904D01*
X132097619Y-127181904D01*
X132211904Y-127143809D01*
X132288095Y-127067619D01*
X132326190Y-126991428D01*
X132364285Y-126839047D01*
X132364285Y-126724761D01*
X132326190Y-126572380D01*
X132288095Y-126496190D01*
X132211904Y-126420000D01*
X132097619Y-126381904D01*
X132021428Y-126381904D01*
X131907142Y-126420000D01*
X131869047Y-126458095D01*
X131526190Y-127181904D02*
X131526190Y-126381904D01*
X131526190Y-126762857D02*
X131069047Y-126762857D01*
X131069047Y-127181904D02*
X131069047Y-126381904D01*
X129659523Y-126420000D02*
X129735714Y-126381904D01*
X129850000Y-126381904D01*
X129964285Y-126420000D01*
X130040476Y-126496190D01*
X130078571Y-126572380D01*
X130116666Y-126724761D01*
X130116666Y-126839047D01*
X130078571Y-126991428D01*
X130040476Y-127067619D01*
X129964285Y-127143809D01*
X129850000Y-127181904D01*
X129773809Y-127181904D01*
X129659523Y-127143809D01*
X129621428Y-127105714D01*
X129621428Y-126839047D01*
X129773809Y-126839047D01*
X129126190Y-126381904D02*
X128973809Y-126381904D01*
X128897619Y-126420000D01*
X128821428Y-126496190D01*
X128783333Y-126648571D01*
X128783333Y-126915238D01*
X128821428Y-127067619D01*
X128897619Y-127143809D01*
X128973809Y-127181904D01*
X129126190Y-127181904D01*
X129202380Y-127143809D01*
X129278571Y-127067619D01*
X129316666Y-126915238D01*
X129316666Y-126648571D01*
X129278571Y-126496190D01*
X129202380Y-126420000D01*
X129126190Y-126381904D01*
X128440476Y-126762857D02*
X128173809Y-126762857D01*
X128059523Y-127181904D02*
X128440476Y-127181904D01*
X128440476Y-126381904D01*
X128059523Y-126381904D01*
X127754761Y-127143809D02*
X127640476Y-127181904D01*
X127450000Y-127181904D01*
X127373809Y-127143809D01*
X127335714Y-127105714D01*
X127297619Y-127029523D01*
X127297619Y-126953333D01*
X127335714Y-126877142D01*
X127373809Y-126839047D01*
X127450000Y-126800952D01*
X127602380Y-126762857D01*
X127678571Y-126724761D01*
X127716666Y-126686666D01*
X127754761Y-126610476D01*
X127754761Y-126534285D01*
X127716666Y-126458095D01*
X127678571Y-126420000D01*
X127602380Y-126381904D01*
X127411904Y-126381904D01*
X127297619Y-126420000D01*
X138326190Y-127731904D02*
X138173809Y-127731904D01*
X138097619Y-127770000D01*
X138021428Y-127846190D01*
X137983333Y-127998571D01*
X137983333Y-128265238D01*
X138021428Y-128417619D01*
X138097619Y-128493809D01*
X138173809Y-128531904D01*
X138326190Y-128531904D01*
X138402380Y-128493809D01*
X138478571Y-128417619D01*
X138516666Y-128265238D01*
X138516666Y-127998571D01*
X138478571Y-127846190D01*
X138402380Y-127770000D01*
X138326190Y-127731904D01*
X137640476Y-128531904D02*
X137640476Y-127731904D01*
X137183333Y-128531904D01*
X137183333Y-127731904D01*
X135926190Y-128112857D02*
X135811904Y-128150952D01*
X135773809Y-128189047D01*
X135735714Y-128265238D01*
X135735714Y-128379523D01*
X135773809Y-128455714D01*
X135811904Y-128493809D01*
X135888095Y-128531904D01*
X136192857Y-128531904D01*
X136192857Y-127731904D01*
X135926190Y-127731904D01*
X135850000Y-127770000D01*
X135811904Y-127808095D01*
X135773809Y-127884285D01*
X135773809Y-127960476D01*
X135811904Y-128036666D01*
X135850000Y-128074761D01*
X135926190Y-128112857D01*
X136192857Y-128112857D01*
X135392857Y-128112857D02*
X135126190Y-128112857D01*
X135011904Y-128531904D02*
X135392857Y-128531904D01*
X135392857Y-127731904D01*
X135011904Y-127731904D01*
X134402380Y-128112857D02*
X134669047Y-128112857D01*
X134669047Y-128531904D02*
X134669047Y-127731904D01*
X134288095Y-127731904D01*
X133830952Y-127731904D02*
X133678571Y-127731904D01*
X133602380Y-127770000D01*
X133526190Y-127846190D01*
X133488095Y-127998571D01*
X133488095Y-128265238D01*
X133526190Y-128417619D01*
X133602380Y-128493809D01*
X133678571Y-128531904D01*
X133830952Y-128531904D01*
X133907142Y-128493809D01*
X133983333Y-128417619D01*
X134021428Y-128265238D01*
X134021428Y-127998571D01*
X133983333Y-127846190D01*
X133907142Y-127770000D01*
X133830952Y-127731904D01*
X132688095Y-128531904D02*
X132954761Y-128150952D01*
X133145238Y-128531904D02*
X133145238Y-127731904D01*
X132840476Y-127731904D01*
X132764285Y-127770000D01*
X132726190Y-127808095D01*
X132688095Y-127884285D01*
X132688095Y-127998571D01*
X132726190Y-128074761D01*
X132764285Y-128112857D01*
X132840476Y-128150952D01*
X133145238Y-128150952D01*
X132345238Y-128112857D02*
X132078571Y-128112857D01*
X131964285Y-128531904D02*
X132345238Y-128531904D01*
X132345238Y-127731904D01*
X131964285Y-127731904D01*
X131126190Y-127731904D02*
X130669047Y-127731904D01*
X130897619Y-128531904D02*
X130897619Y-127731904D01*
X130402380Y-128531904D02*
X130402380Y-127731904D01*
X130402380Y-128112857D02*
X129945238Y-128112857D01*
X129945238Y-128531904D02*
X129945238Y-127731904D01*
X129564285Y-128112857D02*
X129297619Y-128112857D01*
X129183333Y-128531904D02*
X129564285Y-128531904D01*
X129564285Y-127731904D01*
X129183333Y-127731904D01*
X135850000Y-129462857D02*
X135735714Y-129500952D01*
X135697619Y-129539047D01*
X135659523Y-129615238D01*
X135659523Y-129729523D01*
X135697619Y-129805714D01*
X135735714Y-129843809D01*
X135811904Y-129881904D01*
X136116666Y-129881904D01*
X136116666Y-129081904D01*
X135850000Y-129081904D01*
X135773809Y-129120000D01*
X135735714Y-129158095D01*
X135697619Y-129234285D01*
X135697619Y-129310476D01*
X135735714Y-129386666D01*
X135773809Y-129424761D01*
X135850000Y-129462857D01*
X136116666Y-129462857D01*
X135354761Y-129653333D02*
X134973809Y-129653333D01*
X135430952Y-129881904D02*
X135164285Y-129081904D01*
X134897619Y-129881904D01*
X134745238Y-129081904D02*
X134288095Y-129081904D01*
X134516666Y-129881904D02*
X134516666Y-129081904D01*
X134135714Y-129081904D02*
X133678571Y-129081904D01*
X133907142Y-129881904D02*
X133907142Y-129081904D01*
X133411904Y-129462857D02*
X133145238Y-129462857D01*
X133030952Y-129881904D02*
X133411904Y-129881904D01*
X133411904Y-129081904D01*
X133030952Y-129081904D01*
X132230952Y-129881904D02*
X132497619Y-129500952D01*
X132688095Y-129881904D02*
X132688095Y-129081904D01*
X132383333Y-129081904D01*
X132307142Y-129120000D01*
X132269047Y-129158095D01*
X132230952Y-129234285D01*
X132230952Y-129348571D01*
X132269047Y-129424761D01*
X132307142Y-129462857D01*
X132383333Y-129500952D01*
X132688095Y-129500952D01*
X131735714Y-129500952D02*
X131735714Y-129881904D01*
X132002380Y-129081904D02*
X131735714Y-129500952D01*
X131469047Y-129081904D01*
X138859523Y-110747857D02*
X138745238Y-110785952D01*
X138707142Y-110824047D01*
X138669047Y-110900238D01*
X138669047Y-111014523D01*
X138707142Y-111090714D01*
X138745238Y-111128809D01*
X138821428Y-111166904D01*
X139126190Y-111166904D01*
X139126190Y-110366904D01*
X138859523Y-110366904D01*
X138783333Y-110405000D01*
X138745238Y-110443095D01*
X138707142Y-110519285D01*
X138707142Y-110595476D01*
X138745238Y-110671666D01*
X138783333Y-110709761D01*
X138859523Y-110747857D01*
X139126190Y-110747857D01*
X138364285Y-110938333D02*
X137983333Y-110938333D01*
X138440476Y-111166904D02*
X138173809Y-110366904D01*
X137907142Y-111166904D01*
X137754761Y-110366904D02*
X137297619Y-110366904D01*
X137526190Y-111166904D02*
X137526190Y-110366904D01*
X137145238Y-110366904D02*
X136688095Y-110366904D01*
X136916666Y-111166904D02*
X136916666Y-110366904D01*
X136421428Y-110747857D02*
X136154761Y-110747857D01*
X136040476Y-111166904D02*
X136421428Y-111166904D01*
X136421428Y-110366904D01*
X136040476Y-110366904D01*
X135240476Y-111166904D02*
X135507142Y-110785952D01*
X135697619Y-111166904D02*
X135697619Y-110366904D01*
X135392857Y-110366904D01*
X135316666Y-110405000D01*
X135278571Y-110443095D01*
X135240476Y-110519285D01*
X135240476Y-110633571D01*
X135278571Y-110709761D01*
X135316666Y-110747857D01*
X135392857Y-110785952D01*
X135697619Y-110785952D01*
X134745238Y-110785952D02*
X134745238Y-111166904D01*
X135011904Y-110366904D02*
X134745238Y-110785952D01*
X134478571Y-110366904D01*
X133183333Y-110405000D02*
X133259523Y-110366904D01*
X133373809Y-110366904D01*
X133488095Y-110405000D01*
X133564285Y-110481190D01*
X133602380Y-110557380D01*
X133640476Y-110709761D01*
X133640476Y-110824047D01*
X133602380Y-110976428D01*
X133564285Y-111052619D01*
X133488095Y-111128809D01*
X133373809Y-111166904D01*
X133297619Y-111166904D01*
X133183333Y-111128809D01*
X133145238Y-111090714D01*
X133145238Y-110824047D01*
X133297619Y-110824047D01*
X132650000Y-110366904D02*
X132497619Y-110366904D01*
X132421428Y-110405000D01*
X132345238Y-110481190D01*
X132307142Y-110633571D01*
X132307142Y-110900238D01*
X132345238Y-111052619D01*
X132421428Y-111128809D01*
X132497619Y-111166904D01*
X132650000Y-111166904D01*
X132726190Y-111128809D01*
X132802380Y-111052619D01*
X132840476Y-110900238D01*
X132840476Y-110633571D01*
X132802380Y-110481190D01*
X132726190Y-110405000D01*
X132650000Y-110366904D01*
X131964285Y-110747857D02*
X131697619Y-110747857D01*
X131583333Y-111166904D02*
X131964285Y-111166904D01*
X131964285Y-110366904D01*
X131583333Y-110366904D01*
X131278571Y-111128809D02*
X131164285Y-111166904D01*
X130973809Y-111166904D01*
X130897619Y-111128809D01*
X130859523Y-111090714D01*
X130821428Y-111014523D01*
X130821428Y-110938333D01*
X130859523Y-110862142D01*
X130897619Y-110824047D01*
X130973809Y-110785952D01*
X131126190Y-110747857D01*
X131202380Y-110709761D01*
X131240476Y-110671666D01*
X131278571Y-110595476D01*
X131278571Y-110519285D01*
X131240476Y-110443095D01*
X131202380Y-110405000D01*
X131126190Y-110366904D01*
X130935714Y-110366904D01*
X130821428Y-110405000D01*
X129716666Y-110366904D02*
X129564285Y-110366904D01*
X129488095Y-110405000D01*
X129411904Y-110481190D01*
X129373809Y-110633571D01*
X129373809Y-110900238D01*
X129411904Y-111052619D01*
X129488095Y-111128809D01*
X129564285Y-111166904D01*
X129716666Y-111166904D01*
X129792857Y-111128809D01*
X129869047Y-111052619D01*
X129907142Y-110900238D01*
X129907142Y-110633571D01*
X129869047Y-110481190D01*
X129792857Y-110405000D01*
X129716666Y-110366904D01*
X129030952Y-111166904D02*
X129030952Y-110366904D01*
X128573809Y-111166904D01*
X128573809Y-110366904D01*
X138269047Y-112097857D02*
X138154761Y-112135952D01*
X138116666Y-112174047D01*
X138078571Y-112250238D01*
X138078571Y-112364523D01*
X138116666Y-112440714D01*
X138154761Y-112478809D01*
X138230952Y-112516904D01*
X138535714Y-112516904D01*
X138535714Y-111716904D01*
X138269047Y-111716904D01*
X138192857Y-111755000D01*
X138154761Y-111793095D01*
X138116666Y-111869285D01*
X138116666Y-111945476D01*
X138154761Y-112021666D01*
X138192857Y-112059761D01*
X138269047Y-112097857D01*
X138535714Y-112097857D01*
X137773809Y-112288333D02*
X137392857Y-112288333D01*
X137850000Y-112516904D02*
X137583333Y-111716904D01*
X137316666Y-112516904D01*
X136592857Y-112440714D02*
X136630952Y-112478809D01*
X136745238Y-112516904D01*
X136821428Y-112516904D01*
X136935714Y-112478809D01*
X137011904Y-112402619D01*
X137050000Y-112326428D01*
X137088095Y-112174047D01*
X137088095Y-112059761D01*
X137050000Y-111907380D01*
X137011904Y-111831190D01*
X136935714Y-111755000D01*
X136821428Y-111716904D01*
X136745238Y-111716904D01*
X136630952Y-111755000D01*
X136592857Y-111793095D01*
X136250000Y-112516904D02*
X136250000Y-111716904D01*
X135792857Y-112516904D02*
X136135714Y-112059761D01*
X135792857Y-111716904D02*
X136250000Y-112174047D01*
X134688095Y-111716904D02*
X134535714Y-111716904D01*
X134459523Y-111755000D01*
X134383333Y-111831190D01*
X134345238Y-111983571D01*
X134345238Y-112250238D01*
X134383333Y-112402619D01*
X134459523Y-112478809D01*
X134535714Y-112516904D01*
X134688095Y-112516904D01*
X134764285Y-112478809D01*
X134840476Y-112402619D01*
X134878571Y-112250238D01*
X134878571Y-111983571D01*
X134840476Y-111831190D01*
X134764285Y-111755000D01*
X134688095Y-111716904D01*
X133735714Y-112097857D02*
X134002380Y-112097857D01*
X134002380Y-112516904D02*
X134002380Y-111716904D01*
X133621428Y-111716904D01*
X132440476Y-112097857D02*
X132326190Y-112135952D01*
X132288095Y-112174047D01*
X132250000Y-112250238D01*
X132250000Y-112364523D01*
X132288095Y-112440714D01*
X132326190Y-112478809D01*
X132402380Y-112516904D01*
X132707142Y-112516904D01*
X132707142Y-111716904D01*
X132440476Y-111716904D01*
X132364285Y-111755000D01*
X132326190Y-111793095D01*
X132288095Y-111869285D01*
X132288095Y-111945476D01*
X132326190Y-112021666D01*
X132364285Y-112059761D01*
X132440476Y-112097857D01*
X132707142Y-112097857D01*
X131754761Y-111716904D02*
X131602380Y-111716904D01*
X131526190Y-111755000D01*
X131450000Y-111831190D01*
X131411904Y-111983571D01*
X131411904Y-112250238D01*
X131450000Y-112402619D01*
X131526190Y-112478809D01*
X131602380Y-112516904D01*
X131754761Y-112516904D01*
X131830952Y-112478809D01*
X131907142Y-112402619D01*
X131945238Y-112250238D01*
X131945238Y-111983571D01*
X131907142Y-111831190D01*
X131830952Y-111755000D01*
X131754761Y-111716904D01*
X131107142Y-112288333D02*
X130726190Y-112288333D01*
X131183333Y-112516904D02*
X130916666Y-111716904D01*
X130650000Y-112516904D01*
X129926190Y-112516904D02*
X130192857Y-112135952D01*
X130383333Y-112516904D02*
X130383333Y-111716904D01*
X130078571Y-111716904D01*
X130002380Y-111755000D01*
X129964285Y-111793095D01*
X129926190Y-111869285D01*
X129926190Y-111983571D01*
X129964285Y-112059761D01*
X130002380Y-112097857D01*
X130078571Y-112135952D01*
X130383333Y-112135952D01*
X129583333Y-112516904D02*
X129583333Y-111716904D01*
X129392857Y-111716904D01*
X129278571Y-111755000D01*
X129202380Y-111831190D01*
X129164285Y-111907380D01*
X129126190Y-112059761D01*
X129126190Y-112174047D01*
X129164285Y-112326428D01*
X129202380Y-112402619D01*
X129278571Y-112478809D01*
X129392857Y-112516904D01*
X129583333Y-112516904D01*
D11*
X115428571Y-82802857D02*
X115928571Y-82802857D01*
X115928571Y-83588571D02*
X115928571Y-82088571D01*
X115214285Y-82088571D01*
X114357142Y-82088571D02*
X114071428Y-82088571D01*
X113928571Y-82160000D01*
X113785714Y-82302857D01*
X113714285Y-82588571D01*
X113714285Y-83088571D01*
X113785714Y-83374285D01*
X113928571Y-83517142D01*
X114071428Y-83588571D01*
X114357142Y-83588571D01*
X114500000Y-83517142D01*
X114642857Y-83374285D01*
X114714285Y-83088571D01*
X114714285Y-82588571D01*
X114642857Y-82302857D01*
X114500000Y-82160000D01*
X114357142Y-82088571D01*
X112214285Y-83588571D02*
X112714285Y-82874285D01*
X113071428Y-83588571D02*
X113071428Y-82088571D01*
X112500000Y-82088571D01*
X112357142Y-82160000D01*
X112285714Y-82231428D01*
X112214285Y-82374285D01*
X112214285Y-82588571D01*
X112285714Y-82731428D01*
X112357142Y-82802857D01*
X112500000Y-82874285D01*
X113071428Y-82874285D01*
X110428571Y-83588571D02*
X110428571Y-82088571D01*
X110071428Y-82088571D01*
X109857142Y-82160000D01*
X109714285Y-82302857D01*
X109642857Y-82445714D01*
X109571428Y-82731428D01*
X109571428Y-82945714D01*
X109642857Y-83231428D01*
X109714285Y-83374285D01*
X109857142Y-83517142D01*
X110071428Y-83588571D01*
X110428571Y-83588571D01*
X108928571Y-82802857D02*
X108428571Y-82802857D01*
X108214285Y-83588571D02*
X108928571Y-83588571D01*
X108928571Y-82088571D01*
X108214285Y-82088571D01*
X107785714Y-82088571D02*
X106928571Y-82088571D01*
X107357142Y-83588571D02*
X107357142Y-82088571D01*
X106500000Y-83160000D02*
X105785714Y-83160000D01*
X106642857Y-83588571D02*
X106142857Y-82088571D01*
X105642857Y-83588571D01*
X105142857Y-83588571D02*
X105142857Y-82088571D01*
X103714285Y-83588571D02*
X104428571Y-83588571D01*
X104428571Y-82088571D01*
X103214285Y-82802857D02*
X102714285Y-82802857D01*
X102500000Y-83588571D02*
X103214285Y-83588571D01*
X103214285Y-82088571D01*
X102500000Y-82088571D01*
X101857142Y-83588571D02*
X101857142Y-82088571D01*
X101500000Y-82088571D01*
X101285714Y-82160000D01*
X101142857Y-82302857D01*
X101071428Y-82445714D01*
X101000000Y-82731428D01*
X101000000Y-82945714D01*
X101071428Y-83231428D01*
X101142857Y-83374285D01*
X101285714Y-83517142D01*
X101500000Y-83588571D01*
X101857142Y-83588571D01*
X99214285Y-83588571D02*
X99214285Y-82088571D01*
X98500000Y-83588571D02*
X98500000Y-82088571D01*
X97642857Y-83588571D01*
X97642857Y-82088571D01*
X97000000Y-83517142D02*
X96785714Y-83588571D01*
X96428571Y-83588571D01*
X96285714Y-83517142D01*
X96214285Y-83445714D01*
X96142857Y-83302857D01*
X96142857Y-83160000D01*
X96214285Y-83017142D01*
X96285714Y-82945714D01*
X96428571Y-82874285D01*
X96714285Y-82802857D01*
X96857142Y-82731428D01*
X96928571Y-82660000D01*
X97000000Y-82517142D01*
X97000000Y-82374285D01*
X96928571Y-82231428D01*
X96857142Y-82160000D01*
X96714285Y-82088571D01*
X96357142Y-82088571D01*
X96142857Y-82160000D01*
X95714285Y-82088571D02*
X94857142Y-82088571D01*
X95285714Y-83588571D02*
X95285714Y-82088571D01*
X93500000Y-83588571D02*
X94000000Y-82874285D01*
X94357142Y-83588571D02*
X94357142Y-82088571D01*
X93785714Y-82088571D01*
X93642857Y-82160000D01*
X93571428Y-82231428D01*
X93500000Y-82374285D01*
X93500000Y-82588571D01*
X93571428Y-82731428D01*
X93642857Y-82802857D01*
X93785714Y-82874285D01*
X94357142Y-82874285D01*
X92857142Y-82088571D02*
X92857142Y-83302857D01*
X92785714Y-83445714D01*
X92714285Y-83517142D01*
X92571428Y-83588571D01*
X92285714Y-83588571D01*
X92142857Y-83517142D01*
X92071428Y-83445714D01*
X92000000Y-83302857D01*
X92000000Y-82088571D01*
X90428571Y-83445714D02*
X90500000Y-83517142D01*
X90714285Y-83588571D01*
X90857142Y-83588571D01*
X91071428Y-83517142D01*
X91214285Y-83374285D01*
X91285714Y-83231428D01*
X91357142Y-82945714D01*
X91357142Y-82731428D01*
X91285714Y-82445714D01*
X91214285Y-82302857D01*
X91071428Y-82160000D01*
X90857142Y-82088571D01*
X90714285Y-82088571D01*
X90500000Y-82160000D01*
X90428571Y-82231428D01*
X90000000Y-82088571D02*
X89142857Y-82088571D01*
X89571428Y-83588571D02*
X89571428Y-82088571D01*
X88642857Y-83588571D02*
X88642857Y-82088571D01*
X87642857Y-82088571D02*
X87357142Y-82088571D01*
X87214285Y-82160000D01*
X87071428Y-82302857D01*
X87000000Y-82588571D01*
X87000000Y-83088571D01*
X87071428Y-83374285D01*
X87214285Y-83517142D01*
X87357142Y-83588571D01*
X87642857Y-83588571D01*
X87785714Y-83517142D01*
X87928571Y-83374285D01*
X88000000Y-83088571D01*
X88000000Y-82588571D01*
X87928571Y-82302857D01*
X87785714Y-82160000D01*
X87642857Y-82088571D01*
X86357142Y-83588571D02*
X86357142Y-82088571D01*
X85500000Y-83588571D01*
X85500000Y-82088571D01*
X84857142Y-83517142D02*
X84642857Y-83588571D01*
X84285714Y-83588571D01*
X84142857Y-83517142D01*
X84071428Y-83445714D01*
X84000000Y-83302857D01*
X84000000Y-83160000D01*
X84071428Y-83017142D01*
X84142857Y-82945714D01*
X84285714Y-82874285D01*
X84571428Y-82802857D01*
X84714285Y-82731428D01*
X84785714Y-82660000D01*
X84857142Y-82517142D01*
X84857142Y-82374285D01*
X84785714Y-82231428D01*
X84714285Y-82160000D01*
X84571428Y-82088571D01*
X84214285Y-82088571D01*
X84000000Y-82160000D01*
X107285714Y-86038571D02*
X107285714Y-84538571D01*
X106714285Y-84538571D01*
X106571428Y-84610000D01*
X106500000Y-84681428D01*
X106428571Y-84824285D01*
X106428571Y-85038571D01*
X106500000Y-85181428D01*
X106571428Y-85252857D01*
X106714285Y-85324285D01*
X107285714Y-85324285D01*
X105071428Y-86038571D02*
X105785714Y-86038571D01*
X105785714Y-84538571D01*
X104571428Y-85252857D02*
X104071428Y-85252857D01*
X103857142Y-86038571D02*
X104571428Y-86038571D01*
X104571428Y-84538571D01*
X103857142Y-84538571D01*
X103285714Y-85610000D02*
X102571428Y-85610000D01*
X103428571Y-86038571D02*
X102928571Y-84538571D01*
X102428571Y-86038571D01*
X102000000Y-85967142D02*
X101785714Y-86038571D01*
X101428571Y-86038571D01*
X101285714Y-85967142D01*
X101214285Y-85895714D01*
X101142857Y-85752857D01*
X101142857Y-85610000D01*
X101214285Y-85467142D01*
X101285714Y-85395714D01*
X101428571Y-85324285D01*
X101714285Y-85252857D01*
X101857142Y-85181428D01*
X101928571Y-85110000D01*
X102000000Y-84967142D01*
X102000000Y-84824285D01*
X101928571Y-84681428D01*
X101857142Y-84610000D01*
X101714285Y-84538571D01*
X101357142Y-84538571D01*
X101142857Y-84610000D01*
X100500000Y-85252857D02*
X100000000Y-85252857D01*
X99785714Y-86038571D02*
X100500000Y-86038571D01*
X100500000Y-84538571D01*
X99785714Y-84538571D01*
X98214285Y-84538571D02*
X97714285Y-86038571D01*
X97214285Y-84538571D01*
X96714285Y-86038571D02*
X96714285Y-84538571D01*
X96071428Y-85967142D02*
X95857142Y-86038571D01*
X95500000Y-86038571D01*
X95357142Y-85967142D01*
X95285714Y-85895714D01*
X95214285Y-85752857D01*
X95214285Y-85610000D01*
X95285714Y-85467142D01*
X95357142Y-85395714D01*
X95500000Y-85324285D01*
X95785714Y-85252857D01*
X95928571Y-85181428D01*
X96000000Y-85110000D01*
X96071428Y-84967142D01*
X96071428Y-84824285D01*
X96000000Y-84681428D01*
X95928571Y-84610000D01*
X95785714Y-84538571D01*
X95428571Y-84538571D01*
X95214285Y-84610000D01*
X94571428Y-86038571D02*
X94571428Y-84538571D01*
X94071428Y-84538571D02*
X93214285Y-84538571D01*
X93642857Y-86038571D02*
X93642857Y-84538571D01*
X92714285Y-85895714D02*
X92642857Y-85967142D01*
X92714285Y-86038571D01*
X92785714Y-85967142D01*
X92714285Y-85895714D01*
X92714285Y-86038571D01*
X92714285Y-85110000D02*
X92642857Y-85181428D01*
X92714285Y-85252857D01*
X92785714Y-85181428D01*
X92714285Y-85110000D01*
X92714285Y-85252857D01*
X114964285Y-88488571D02*
X114678571Y-88488571D01*
X114535714Y-88417142D01*
X114464285Y-88345714D01*
X114321428Y-88131428D01*
X114250000Y-87845714D01*
X114250000Y-87274285D01*
X114321428Y-87131428D01*
X114392857Y-87060000D01*
X114535714Y-86988571D01*
X114821428Y-86988571D01*
X114964285Y-87060000D01*
X115035714Y-87131428D01*
X115107142Y-87274285D01*
X115107142Y-87631428D01*
X115035714Y-87774285D01*
X114964285Y-87845714D01*
X114821428Y-87917142D01*
X114535714Y-87917142D01*
X114392857Y-87845714D01*
X114321428Y-87774285D01*
X114250000Y-87631428D01*
X113321428Y-86988571D02*
X113178571Y-86988571D01*
X113035714Y-87060000D01*
X112964285Y-87131428D01*
X112892857Y-87274285D01*
X112821428Y-87560000D01*
X112821428Y-87917142D01*
X112892857Y-88202857D01*
X112964285Y-88345714D01*
X113035714Y-88417142D01*
X113178571Y-88488571D01*
X113321428Y-88488571D01*
X113464285Y-88417142D01*
X113535714Y-88345714D01*
X113607142Y-88202857D01*
X113678571Y-87917142D01*
X113678571Y-87560000D01*
X113607142Y-87274285D01*
X113535714Y-87131428D01*
X113464285Y-87060000D01*
X113321428Y-86988571D01*
X112321428Y-86988571D02*
X111321428Y-86988571D01*
X111964285Y-88488571D01*
X110464285Y-86988571D02*
X110321428Y-86988571D01*
X110178571Y-87060000D01*
X110107142Y-87131428D01*
X110035714Y-87274285D01*
X109964285Y-87560000D01*
X109964285Y-87917142D01*
X110035714Y-88202857D01*
X110107142Y-88345714D01*
X110178571Y-88417142D01*
X110321428Y-88488571D01*
X110464285Y-88488571D01*
X110607142Y-88417142D01*
X110678571Y-88345714D01*
X110750000Y-88202857D01*
X110821428Y-87917142D01*
X110821428Y-87560000D01*
X110750000Y-87274285D01*
X110678571Y-87131428D01*
X110607142Y-87060000D01*
X110464285Y-86988571D01*
X109321428Y-88345714D02*
X109250000Y-88417142D01*
X109321428Y-88488571D01*
X109392857Y-88417142D01*
X109321428Y-88345714D01*
X109321428Y-88488571D01*
X107750000Y-88345714D02*
X107821428Y-88417142D01*
X108035714Y-88488571D01*
X108178571Y-88488571D01*
X108392857Y-88417142D01*
X108535714Y-88274285D01*
X108607142Y-88131428D01*
X108678571Y-87845714D01*
X108678571Y-87631428D01*
X108607142Y-87345714D01*
X108535714Y-87202857D01*
X108392857Y-87060000D01*
X108178571Y-86988571D01*
X108035714Y-86988571D01*
X107821428Y-87060000D01*
X107750000Y-87131428D01*
X107250000Y-87488571D02*
X106892857Y-88488571D01*
X106535714Y-87488571D02*
X106892857Y-88488571D01*
X107035714Y-88845714D01*
X107107142Y-88917142D01*
X107250000Y-88988571D01*
X105964285Y-88488571D02*
X105964285Y-86988571D01*
X105964285Y-87560000D02*
X105821428Y-87488571D01*
X105535714Y-87488571D01*
X105392857Y-87560000D01*
X105321428Y-87631428D01*
X105250000Y-87774285D01*
X105250000Y-88202857D01*
X105321428Y-88345714D01*
X105392857Y-88417142D01*
X105535714Y-88488571D01*
X105821428Y-88488571D01*
X105964285Y-88417142D01*
X104035714Y-88417142D02*
X104178571Y-88488571D01*
X104464285Y-88488571D01*
X104607142Y-88417142D01*
X104678571Y-88274285D01*
X104678571Y-87702857D01*
X104607142Y-87560000D01*
X104464285Y-87488571D01*
X104178571Y-87488571D01*
X104035714Y-87560000D01*
X103964285Y-87702857D01*
X103964285Y-87845714D01*
X104678571Y-87988571D01*
X103321428Y-88488571D02*
X103321428Y-87488571D01*
X103321428Y-87774285D02*
X103250000Y-87631428D01*
X103178571Y-87560000D01*
X103035714Y-87488571D01*
X102892857Y-87488571D01*
X101535714Y-88345714D02*
X101607142Y-88417142D01*
X101821428Y-88488571D01*
X101964285Y-88488571D01*
X102178571Y-88417142D01*
X102321428Y-88274285D01*
X102392857Y-88131428D01*
X102464285Y-87845714D01*
X102464285Y-87631428D01*
X102392857Y-87345714D01*
X102321428Y-87202857D01*
X102178571Y-87060000D01*
X101964285Y-86988571D01*
X101821428Y-86988571D01*
X101607142Y-87060000D01*
X101535714Y-87131428D01*
X100892857Y-88488571D02*
X100892857Y-87488571D01*
X100892857Y-86988571D02*
X100964285Y-87060000D01*
X100892857Y-87131428D01*
X100821428Y-87060000D01*
X100892857Y-86988571D01*
X100892857Y-87131428D01*
X100392857Y-87488571D02*
X99821428Y-87488571D01*
X100178571Y-86988571D02*
X100178571Y-88274285D01*
X100107142Y-88417142D01*
X99964285Y-88488571D01*
X99821428Y-88488571D01*
X99464285Y-87488571D02*
X99107142Y-88488571D01*
X98750000Y-87488571D02*
X99107142Y-88488571D01*
X99250000Y-88845714D01*
X99321428Y-88917142D01*
X99464285Y-88988571D01*
X97321428Y-88345714D02*
X97392857Y-88417142D01*
X97607142Y-88488571D01*
X97750000Y-88488571D01*
X97964285Y-88417142D01*
X98107142Y-88274285D01*
X98178571Y-88131428D01*
X98250000Y-87845714D01*
X98250000Y-87631428D01*
X98178571Y-87345714D01*
X98107142Y-87202857D01*
X97964285Y-87060000D01*
X97750000Y-86988571D01*
X97607142Y-86988571D01*
X97392857Y-87060000D01*
X97321428Y-87131428D01*
X96678571Y-88488571D02*
X96678571Y-87488571D01*
X96678571Y-86988571D02*
X96750000Y-87060000D01*
X96678571Y-87131428D01*
X96607142Y-87060000D01*
X96678571Y-86988571D01*
X96678571Y-87131428D01*
X95964285Y-88488571D02*
X95964285Y-87488571D01*
X95964285Y-87774285D02*
X95892857Y-87631428D01*
X95821428Y-87560000D01*
X95678571Y-87488571D01*
X95535714Y-87488571D01*
X94392857Y-88417142D02*
X94535714Y-88488571D01*
X94821428Y-88488571D01*
X94964285Y-88417142D01*
X95035714Y-88345714D01*
X95107142Y-88202857D01*
X95107142Y-87774285D01*
X95035714Y-87631428D01*
X94964285Y-87560000D01*
X94821428Y-87488571D01*
X94535714Y-87488571D01*
X94392857Y-87560000D01*
X93107142Y-87488571D02*
X93107142Y-88488571D01*
X93750000Y-87488571D02*
X93750000Y-88274285D01*
X93678571Y-88417142D01*
X93535714Y-88488571D01*
X93321428Y-88488571D01*
X93178571Y-88417142D01*
X93107142Y-88345714D01*
X92392857Y-88488571D02*
X92392857Y-87488571D01*
X92392857Y-86988571D02*
X92464285Y-87060000D01*
X92392857Y-87131428D01*
X92321428Y-87060000D01*
X92392857Y-86988571D01*
X92392857Y-87131428D01*
X91892857Y-87488571D02*
X91321428Y-87488571D01*
X91678571Y-86988571D02*
X91678571Y-88274285D01*
X91607142Y-88417142D01*
X91464285Y-88488571D01*
X91321428Y-88488571D01*
X90892857Y-88417142D02*
X90750000Y-88488571D01*
X90464285Y-88488571D01*
X90321428Y-88417142D01*
X90250000Y-88274285D01*
X90250000Y-88202857D01*
X90321428Y-88060000D01*
X90464285Y-87988571D01*
X90678571Y-87988571D01*
X90821428Y-87917142D01*
X90892857Y-87774285D01*
X90892857Y-87702857D01*
X90821428Y-87560000D01*
X90678571Y-87488571D01*
X90464285Y-87488571D01*
X90321428Y-87560000D01*
X89607142Y-88345714D02*
X89535714Y-88417142D01*
X89607142Y-88488571D01*
X89678571Y-88417142D01*
X89607142Y-88345714D01*
X89607142Y-88488571D01*
X88250000Y-88417142D02*
X88392857Y-88488571D01*
X88678571Y-88488571D01*
X88821428Y-88417142D01*
X88892857Y-88345714D01*
X88964285Y-88202857D01*
X88964285Y-87774285D01*
X88892857Y-87631428D01*
X88821428Y-87560000D01*
X88678571Y-87488571D01*
X88392857Y-87488571D01*
X88250000Y-87560000D01*
X87392857Y-88488571D02*
X87535714Y-88417142D01*
X87607142Y-88345714D01*
X87678571Y-88202857D01*
X87678571Y-87774285D01*
X87607142Y-87631428D01*
X87535714Y-87560000D01*
X87392857Y-87488571D01*
X87178571Y-87488571D01*
X87035714Y-87560000D01*
X86964285Y-87631428D01*
X86892857Y-87774285D01*
X86892857Y-88202857D01*
X86964285Y-88345714D01*
X87035714Y-88417142D01*
X87178571Y-88488571D01*
X87392857Y-88488571D01*
X86250000Y-88488571D02*
X86250000Y-87488571D01*
X86250000Y-87631428D02*
X86178571Y-87560000D01*
X86035714Y-87488571D01*
X85821428Y-87488571D01*
X85678571Y-87560000D01*
X85607142Y-87702857D01*
X85607142Y-88488571D01*
X85607142Y-87702857D02*
X85535714Y-87560000D01*
X85392857Y-87488571D01*
X85178571Y-87488571D01*
X85035714Y-87560000D01*
X84964285Y-87702857D01*
X84964285Y-88488571D01*
D10*
X147122857Y-136832380D02*
X147694285Y-136832380D01*
X147408571Y-136832380D02*
X147408571Y-135832380D01*
X147503809Y-135975238D01*
X147599047Y-136070476D01*
X147694285Y-136118095D01*
X146503809Y-135832380D02*
X146408571Y-135832380D01*
X146313333Y-135880000D01*
X146265714Y-135927619D01*
X146218095Y-136022857D01*
X146170476Y-136213333D01*
X146170476Y-136451428D01*
X146218095Y-136641904D01*
X146265714Y-136737142D01*
X146313333Y-136784761D01*
X146408571Y-136832380D01*
X146503809Y-136832380D01*
X146599047Y-136784761D01*
X146646666Y-136737142D01*
X146694285Y-136641904D01*
X146741904Y-136451428D01*
X146741904Y-136213333D01*
X146694285Y-136022857D01*
X146646666Y-135927619D01*
X146599047Y-135880000D01*
X146503809Y-135832380D01*
X145313333Y-135832380D02*
X145503809Y-135832380D01*
X145599047Y-135880000D01*
X145646666Y-135927619D01*
X145741904Y-136070476D01*
X145789523Y-136260952D01*
X145789523Y-136641904D01*
X145741904Y-136737142D01*
X145694285Y-136784761D01*
X145599047Y-136832380D01*
X145408571Y-136832380D01*
X145313333Y-136784761D01*
X145265714Y-136737142D01*
X145218095Y-136641904D01*
X145218095Y-136403809D01*
X145265714Y-136308571D01*
X145313333Y-136260952D01*
X145408571Y-136213333D01*
X145599047Y-136213333D01*
X145694285Y-136260952D01*
X145741904Y-136308571D01*
X145789523Y-136403809D01*
X144884761Y-135832380D02*
X144218095Y-135832380D01*
X144646666Y-136832380D01*
D12*
%TO.C,G\u002A\u002A\u002A*%
G36*
X90764810Y-64126552D02*
G01*
X89938059Y-64314813D01*
X89167324Y-64670341D01*
X88484801Y-65187100D01*
X87922682Y-65859055D01*
X87646622Y-66355555D01*
X87492404Y-66709724D01*
X87387460Y-66992145D01*
X87357547Y-67117555D01*
X87425876Y-67187516D01*
X87649455Y-67231758D01*
X88054202Y-67253574D01*
X88457111Y-67257269D01*
X89557778Y-67255871D01*
X89815312Y-66858349D01*
X90234066Y-66390045D01*
X90733025Y-66112053D01*
X91271648Y-66023909D01*
X91809395Y-66125149D01*
X92305726Y-66415307D01*
X92718667Y-66891641D01*
X92894154Y-67126349D01*
X93039760Y-67249273D01*
X93060594Y-67254318D01*
X93186167Y-67180513D01*
X93425658Y-66979094D01*
X93737555Y-66686202D01*
X93907261Y-66517178D01*
X94637778Y-65775689D01*
X93988082Y-65166866D01*
X93259214Y-64625715D01*
X92457582Y-64275968D01*
X91615383Y-64111592D01*
X90764810Y-64126552D01*
G37*
X90764810Y-64126552D02*
X89938059Y-64314813D01*
X89167324Y-64670341D01*
X88484801Y-65187100D01*
X87922682Y-65859055D01*
X87646622Y-66355555D01*
X87492404Y-66709724D01*
X87387460Y-66992145D01*
X87357547Y-67117555D01*
X87425876Y-67187516D01*
X87649455Y-67231758D01*
X88054202Y-67253574D01*
X88457111Y-67257269D01*
X89557778Y-67255871D01*
X89815312Y-66858349D01*
X90234066Y-66390045D01*
X90733025Y-66112053D01*
X91271648Y-66023909D01*
X91809395Y-66125149D01*
X92305726Y-66415307D01*
X92718667Y-66891641D01*
X92894154Y-67126349D01*
X93039760Y-67249273D01*
X93060594Y-67254318D01*
X93186167Y-67180513D01*
X93425658Y-66979094D01*
X93737555Y-66686202D01*
X93907261Y-66517178D01*
X94637778Y-65775689D01*
X93988082Y-65166866D01*
X93259214Y-64625715D01*
X92457582Y-64275968D01*
X91615383Y-64111592D01*
X90764810Y-64126552D01*
G36*
X124970144Y-64126552D02*
G01*
X124143393Y-64314813D01*
X123372658Y-64670341D01*
X122690134Y-65187100D01*
X122128015Y-65859055D01*
X121851955Y-66355555D01*
X121697738Y-66709724D01*
X121592793Y-66992145D01*
X121562881Y-67117555D01*
X121631210Y-67187516D01*
X121854788Y-67231758D01*
X122259535Y-67253574D01*
X122662444Y-67257269D01*
X123763111Y-67255871D01*
X124020646Y-66858349D01*
X124439399Y-66390045D01*
X124938358Y-66112053D01*
X125476982Y-66023909D01*
X126014729Y-66125149D01*
X126511059Y-66415307D01*
X126924000Y-66891641D01*
X127099488Y-67126349D01*
X127245093Y-67249273D01*
X127265928Y-67254318D01*
X127391500Y-67180513D01*
X127630992Y-66979094D01*
X127942889Y-66686202D01*
X128112594Y-66517178D01*
X128843111Y-65775689D01*
X128193416Y-65166866D01*
X127464547Y-64625715D01*
X126662916Y-64275968D01*
X125820716Y-64111592D01*
X124970144Y-64126552D01*
G37*
X124970144Y-64126552D02*
X124143393Y-64314813D01*
X123372658Y-64670341D01*
X122690134Y-65187100D01*
X122128015Y-65859055D01*
X121851955Y-66355555D01*
X121697738Y-66709724D01*
X121592793Y-66992145D01*
X121562881Y-67117555D01*
X121631210Y-67187516D01*
X121854788Y-67231758D01*
X122259535Y-67253574D01*
X122662444Y-67257269D01*
X123763111Y-67255871D01*
X124020646Y-66858349D01*
X124439399Y-66390045D01*
X124938358Y-66112053D01*
X125476982Y-66023909D01*
X126014729Y-66125149D01*
X126511059Y-66415307D01*
X126924000Y-66891641D01*
X127099488Y-67126349D01*
X127245093Y-67249273D01*
X127265928Y-67254318D01*
X127391500Y-67180513D01*
X127630992Y-66979094D01*
X127942889Y-66686202D01*
X128112594Y-66517178D01*
X128843111Y-65775689D01*
X128193416Y-65166866D01*
X127464547Y-64625715D01*
X126662916Y-64275968D01*
X125820716Y-64111592D01*
X124970144Y-64126552D01*
G36*
X84647111Y-67540888D02*
G01*
X84660906Y-68051737D01*
X84700649Y-68377954D01*
X84763873Y-68500036D01*
X84768381Y-68500444D01*
X84901502Y-68427136D01*
X85148164Y-68232295D01*
X85461771Y-67953547D01*
X85558603Y-67862371D01*
X85921709Y-67494078D01*
X86132494Y-67217778D01*
X86220294Y-66991392D01*
X86227555Y-66902816D01*
X86227555Y-66581333D01*
X84647111Y-66581333D01*
X84647111Y-67540888D01*
G37*
X84647111Y-67540888D02*
X84660906Y-68051737D01*
X84700649Y-68377954D01*
X84763873Y-68500036D01*
X84768381Y-68500444D01*
X84901502Y-68427136D01*
X85148164Y-68232295D01*
X85461771Y-67953547D01*
X85558603Y-67862371D01*
X85921709Y-67494078D01*
X86132494Y-67217778D01*
X86220294Y-66991392D01*
X86227555Y-66902816D01*
X86227555Y-66581333D01*
X84647111Y-66581333D01*
X84647111Y-67540888D01*
G36*
X77986667Y-67710222D02*
G01*
X79905778Y-67710222D01*
X79905778Y-68726222D01*
X79915204Y-69244475D01*
X79946176Y-69566023D01*
X80002738Y-69719259D01*
X80050423Y-69742222D01*
X80192764Y-69666245D01*
X80441623Y-69464587D01*
X80749500Y-69176658D01*
X80832781Y-69093111D01*
X81236111Y-68640122D01*
X81456560Y-68284929D01*
X81506581Y-68105333D01*
X81542667Y-67766666D01*
X82530444Y-67734049D01*
X83518222Y-67701432D01*
X83518222Y-66468444D01*
X77986667Y-66468444D01*
X77986667Y-67710222D01*
G37*
X77986667Y-67710222D02*
X79905778Y-67710222D01*
X79905778Y-68726222D01*
X79915204Y-69244475D01*
X79946176Y-69566023D01*
X80002738Y-69719259D01*
X80050423Y-69742222D01*
X80192764Y-69666245D01*
X80441623Y-69464587D01*
X80749500Y-69176658D01*
X80832781Y-69093111D01*
X81236111Y-68640122D01*
X81456560Y-68284929D01*
X81506581Y-68105333D01*
X81542667Y-67766666D01*
X82530444Y-67734049D01*
X83518222Y-67701432D01*
X83518222Y-66468444D01*
X77986667Y-66468444D01*
X77986667Y-67710222D01*
G36*
X103048000Y-67710222D02*
G01*
X104459111Y-67710222D01*
X104993679Y-67714904D01*
X105435333Y-67727690D01*
X105741326Y-67746686D01*
X105868914Y-67770000D01*
X105870222Y-67772698D01*
X105805988Y-67891145D01*
X105644210Y-68116068D01*
X105559778Y-68224250D01*
X105249333Y-68613326D01*
X104148667Y-68613330D01*
X103048000Y-68613333D01*
X103048000Y-69855111D01*
X106045206Y-69855111D01*
X106860825Y-69034011D01*
X107676444Y-68212912D01*
X107676444Y-66468444D01*
X103048000Y-66468444D01*
X103048000Y-67710222D01*
G37*
X103048000Y-67710222D02*
X104459111Y-67710222D01*
X104993679Y-67714904D01*
X105435333Y-67727690D01*
X105741326Y-67746686D01*
X105868914Y-67770000D01*
X105870222Y-67772698D01*
X105805988Y-67891145D01*
X105644210Y-68116068D01*
X105559778Y-68224250D01*
X105249333Y-68613326D01*
X104148667Y-68613330D01*
X103048000Y-68613333D01*
X103048000Y-69855111D01*
X106045206Y-69855111D01*
X106860825Y-69034011D01*
X107676444Y-68212912D01*
X107676444Y-66468444D01*
X103048000Y-66468444D01*
X103048000Y-67710222D01*
G36*
X74800389Y-67340305D02*
G01*
X74035555Y-68099278D01*
X73270722Y-67340305D01*
X72505889Y-66581333D01*
X70482944Y-66581333D01*
X71864138Y-67965852D01*
X73245333Y-69350371D01*
X73245333Y-69997852D01*
X73256147Y-70370201D01*
X73298857Y-70567543D01*
X73388862Y-70640043D01*
X73444099Y-70645333D01*
X73576386Y-70568219D01*
X73842138Y-70351560D01*
X74217116Y-70017377D01*
X74677076Y-69587692D01*
X75197779Y-69084527D01*
X75588987Y-68696823D01*
X76128428Y-68153438D01*
X76610464Y-67661584D01*
X77013316Y-67244003D01*
X77315206Y-66923434D01*
X77494352Y-66722618D01*
X77535111Y-66664823D01*
X77430768Y-66627536D01*
X77151840Y-66598837D01*
X76749481Y-66583062D01*
X76550166Y-66581333D01*
X75565222Y-66581333D01*
X74800389Y-67340305D01*
G37*
X74800389Y-67340305D02*
X74035555Y-68099278D01*
X73270722Y-67340305D01*
X72505889Y-66581333D01*
X70482944Y-66581333D01*
X71864138Y-67965852D01*
X73245333Y-69350371D01*
X73245333Y-69997852D01*
X73256147Y-70370201D01*
X73298857Y-70567543D01*
X73388862Y-70640043D01*
X73444099Y-70645333D01*
X73576386Y-70568219D01*
X73842138Y-70351560D01*
X74217116Y-70017377D01*
X74677076Y-69587692D01*
X75197779Y-69084527D01*
X75588987Y-68696823D01*
X76128428Y-68153438D01*
X76610464Y-67661584D01*
X77013316Y-67244003D01*
X77315206Y-66923434D01*
X77494352Y-66722618D01*
X77535111Y-66664823D01*
X77430768Y-66627536D01*
X77151840Y-66598837D01*
X76749481Y-66583062D01*
X76550166Y-66581333D01*
X75565222Y-66581333D01*
X74800389Y-67340305D01*
G36*
X118375500Y-67340305D02*
G01*
X117610667Y-68099278D01*
X116845834Y-67340305D01*
X116081000Y-66581333D01*
X114058055Y-66581333D01*
X115439250Y-67965852D01*
X116820444Y-69350371D01*
X116820444Y-69997852D01*
X116831261Y-70370209D01*
X116873976Y-70567554D01*
X116963986Y-70640049D01*
X117019176Y-70645333D01*
X117150389Y-70568181D01*
X117415762Y-70351091D01*
X117791662Y-70015611D01*
X118254460Y-69583290D01*
X118780523Y-69075677D01*
X119247555Y-68613333D01*
X121277203Y-66581333D01*
X119140333Y-66581333D01*
X118375500Y-67340305D01*
G37*
X118375500Y-67340305D02*
X117610667Y-68099278D01*
X116845834Y-67340305D01*
X116081000Y-66581333D01*
X114058055Y-66581333D01*
X115439250Y-67965852D01*
X116820444Y-69350371D01*
X116820444Y-69997852D01*
X116831261Y-70370209D01*
X116873976Y-70567554D01*
X116963986Y-70640049D01*
X117019176Y-70645333D01*
X117150389Y-70568181D01*
X117415762Y-70351091D01*
X117791662Y-70015611D01*
X118254460Y-69583290D01*
X118780523Y-69075677D01*
X119247555Y-68613333D01*
X121277203Y-66581333D01*
X119140333Y-66581333D01*
X118375500Y-67340305D01*
G36*
X88002867Y-68622037D02*
G01*
X87629735Y-68645494D01*
X87402806Y-68679716D01*
X87356444Y-68706112D01*
X87390315Y-68859565D01*
X87476500Y-69145947D01*
X87536167Y-69326346D01*
X87684653Y-69641469D01*
X87917460Y-70008410D01*
X88194003Y-70376582D01*
X88473699Y-70695393D01*
X88715966Y-70914254D01*
X88865945Y-70984000D01*
X89000626Y-70908309D01*
X89247211Y-70705904D01*
X89562126Y-70413786D01*
X89711561Y-70265911D01*
X90052347Y-69909981D01*
X90241558Y-69677208D01*
X90296889Y-69541336D01*
X90242303Y-69478380D01*
X90071814Y-69341247D01*
X89874086Y-69087316D01*
X89826630Y-69011135D01*
X89591921Y-68613333D01*
X88474183Y-68613333D01*
X88002867Y-68622037D01*
G37*
X88002867Y-68622037D02*
X87629735Y-68645494D01*
X87402806Y-68679716D01*
X87356444Y-68706112D01*
X87390315Y-68859565D01*
X87476500Y-69145947D01*
X87536167Y-69326346D01*
X87684653Y-69641469D01*
X87917460Y-70008410D01*
X88194003Y-70376582D01*
X88473699Y-70695393D01*
X88715966Y-70914254D01*
X88865945Y-70984000D01*
X89000626Y-70908309D01*
X89247211Y-70705904D01*
X89562126Y-70413786D01*
X89711561Y-70265911D01*
X90052347Y-69909981D01*
X90241558Y-69677208D01*
X90296889Y-69541336D01*
X90242303Y-69478380D01*
X90071814Y-69341247D01*
X89874086Y-69087316D01*
X89826630Y-69011135D01*
X89591921Y-68613333D01*
X88474183Y-68613333D01*
X88002867Y-68622037D01*
G36*
X122214564Y-68621976D02*
G01*
X121839367Y-68645278D01*
X121610022Y-68679295D01*
X121561778Y-68706112D01*
X121627637Y-69036202D01*
X121802872Y-69445910D01*
X122053975Y-69886498D01*
X122347433Y-70309229D01*
X122649735Y-70665365D01*
X122927372Y-70906168D01*
X123127995Y-70984000D01*
X123291165Y-70907669D01*
X123558589Y-70704509D01*
X123881024Y-70413262D01*
X123989065Y-70306488D01*
X124659507Y-69628977D01*
X124408220Y-69452969D01*
X124173263Y-69222640D01*
X123985345Y-68945147D01*
X123813757Y-68613333D01*
X122687768Y-68613333D01*
X122214564Y-68621976D01*
G37*
X122214564Y-68621976D02*
X121839367Y-68645278D01*
X121610022Y-68679295D01*
X121561778Y-68706112D01*
X121627637Y-69036202D01*
X121802872Y-69445910D01*
X122053975Y-69886498D01*
X122347433Y-70309229D01*
X122649735Y-70665365D01*
X122927372Y-70906168D01*
X123127995Y-70984000D01*
X123291165Y-70907669D01*
X123558589Y-70704509D01*
X123881024Y-70413262D01*
X123989065Y-70306488D01*
X124659507Y-69628977D01*
X124408220Y-69452969D01*
X124173263Y-69222640D01*
X123985345Y-68945147D01*
X123813757Y-68613333D01*
X122687768Y-68613333D01*
X122214564Y-68621976D01*
G36*
X111106042Y-66589442D02*
G01*
X110495588Y-66619145D01*
X110039074Y-66678506D01*
X109700784Y-66775587D01*
X109445001Y-66918454D01*
X109236010Y-67115169D01*
X109165921Y-67199994D01*
X108896505Y-67701059D01*
X108850666Y-68229056D01*
X109004595Y-68725099D01*
X109137869Y-69013475D01*
X109170584Y-69210449D01*
X109102742Y-69426766D01*
X109004595Y-69630456D01*
X108844746Y-70101500D01*
X108851032Y-70458422D01*
X108974942Y-70785294D01*
X109199682Y-71128960D01*
X109472509Y-71428112D01*
X109740676Y-71621446D01*
X109885957Y-71661333D01*
X110091657Y-71584210D01*
X110366752Y-71387089D01*
X110531398Y-71234061D01*
X110948618Y-70806790D01*
X110712309Y-70570482D01*
X110555335Y-70369706D01*
X110561827Y-70186284D01*
X110611744Y-70080536D01*
X110699211Y-69950629D01*
X110824167Y-69880037D01*
X111042904Y-69857044D01*
X111411715Y-69869934D01*
X111575194Y-69880017D01*
X112402901Y-69933136D01*
X113659555Y-68663230D01*
X113659555Y-67898888D01*
X112079111Y-67898888D01*
X111981229Y-68211536D01*
X111706709Y-68411783D01*
X111284234Y-68481129D01*
X111181951Y-68477497D01*
X110858875Y-68440235D01*
X110697627Y-68360531D01*
X110634376Y-68203357D01*
X110629901Y-68174544D01*
X110646563Y-67940772D01*
X110797998Y-67797221D01*
X111115682Y-67726889D01*
X111486444Y-67711950D01*
X111842330Y-67724629D01*
X112023170Y-67775772D01*
X112078542Y-67881016D01*
X112079111Y-67898888D01*
X113659555Y-67898888D01*
X113659555Y-66581333D01*
X111906152Y-66581333D01*
X111106042Y-66589442D01*
G37*
X111106042Y-66589442D02*
X110495588Y-66619145D01*
X110039074Y-66678506D01*
X109700784Y-66775587D01*
X109445001Y-66918454D01*
X109236010Y-67115169D01*
X109165921Y-67199994D01*
X108896505Y-67701059D01*
X108850666Y-68229056D01*
X109004595Y-68725099D01*
X109137869Y-69013475D01*
X109170584Y-69210449D01*
X109102742Y-69426766D01*
X109004595Y-69630456D01*
X108844746Y-70101500D01*
X108851032Y-70458422D01*
X108974942Y-70785294D01*
X109199682Y-71128960D01*
X109472509Y-71428112D01*
X109740676Y-71621446D01*
X109885957Y-71661333D01*
X110091657Y-71584210D01*
X110366752Y-71387089D01*
X110531398Y-71234061D01*
X110948618Y-70806790D01*
X110712309Y-70570482D01*
X110555335Y-70369706D01*
X110561827Y-70186284D01*
X110611744Y-70080536D01*
X110699211Y-69950629D01*
X110824167Y-69880037D01*
X111042904Y-69857044D01*
X111411715Y-69869934D01*
X111575194Y-69880017D01*
X112402901Y-69933136D01*
X113659555Y-68663230D01*
X113659555Y-67898888D01*
X112079111Y-67898888D01*
X111981229Y-68211536D01*
X111706709Y-68411783D01*
X111284234Y-68481129D01*
X111181951Y-68477497D01*
X110858875Y-68440235D01*
X110697627Y-68360531D01*
X110634376Y-68203357D01*
X110629901Y-68174544D01*
X110646563Y-67940772D01*
X110797998Y-67797221D01*
X111115682Y-67726889D01*
X111486444Y-67711950D01*
X111842330Y-67724629D01*
X112023170Y-67775772D01*
X112078542Y-67881016D01*
X112079111Y-67898888D01*
X113659555Y-67898888D01*
X113659555Y-66581333D01*
X111906152Y-66581333D01*
X111106042Y-66589442D01*
G36*
X74681442Y-70055165D02*
G01*
X74446895Y-70224060D01*
X74153559Y-70481665D01*
X73844229Y-70785542D01*
X73561696Y-71093255D01*
X73348756Y-71362367D01*
X73248202Y-71550441D01*
X73245333Y-71573405D01*
X73272804Y-71676855D01*
X73385575Y-71737602D01*
X73629185Y-71766447D01*
X74049174Y-71774190D01*
X74092000Y-71774222D01*
X74938667Y-71774222D01*
X74938667Y-70934217D01*
X74922531Y-70488798D01*
X74878767Y-70166062D01*
X74814406Y-70017416D01*
X74681442Y-70055165D01*
G37*
X74681442Y-70055165D02*
X74446895Y-70224060D01*
X74153559Y-70481665D01*
X73844229Y-70785542D01*
X73561696Y-71093255D01*
X73348756Y-71362367D01*
X73248202Y-71550441D01*
X73245333Y-71573405D01*
X73272804Y-71676855D01*
X73385575Y-71737602D01*
X73629185Y-71766447D01*
X74049174Y-71774190D01*
X74092000Y-71774222D01*
X74938667Y-71774222D01*
X74938667Y-70934217D01*
X74922531Y-70488798D01*
X74878767Y-70166062D01*
X74814406Y-70017416D01*
X74681442Y-70055165D01*
G36*
X81093625Y-69206135D02*
G01*
X80762617Y-69506640D01*
X80551355Y-69717273D01*
X79905778Y-70369658D01*
X79905778Y-71774222D01*
X81599111Y-71774222D01*
X81599111Y-70419555D01*
X81590958Y-69774308D01*
X81554431Y-69342474D01*
X81471433Y-69111921D01*
X81323863Y-69070518D01*
X81093625Y-69206135D01*
G37*
X81093625Y-69206135D02*
X80762617Y-69506640D01*
X80551355Y-69717273D01*
X79905778Y-70369658D01*
X79905778Y-71774222D01*
X81599111Y-71774222D01*
X81599111Y-70419555D01*
X81590958Y-69774308D01*
X81554431Y-69342474D01*
X81471433Y-69111921D01*
X81323863Y-69070518D01*
X81093625Y-69206135D01*
G36*
X85756124Y-67939420D02*
G01*
X85484066Y-68178161D01*
X85186607Y-68468688D01*
X84534222Y-69114265D01*
X84534222Y-71774222D01*
X86227555Y-71774222D01*
X86227555Y-69798666D01*
X86224850Y-69017277D01*
X86208421Y-68445732D01*
X86165802Y-68068104D01*
X86084524Y-67868462D01*
X85952120Y-67830877D01*
X85756124Y-67939420D01*
G37*
X85756124Y-67939420D02*
X85484066Y-68178161D01*
X85186607Y-68468688D01*
X84534222Y-69114265D01*
X84534222Y-71774222D01*
X86227555Y-71774222D01*
X86227555Y-69798666D01*
X86224850Y-69017277D01*
X86208421Y-68445732D01*
X86165802Y-68068104D01*
X86084524Y-67868462D01*
X85952120Y-67830877D01*
X85756124Y-67939420D01*
G36*
X94656685Y-66427601D02*
G01*
X94401411Y-66616950D01*
X94085547Y-66903649D01*
X93747920Y-67247122D01*
X93427358Y-67606791D01*
X93162690Y-67942081D01*
X92992741Y-68212414D01*
X92953701Y-68318764D01*
X92742577Y-68865346D01*
X92360004Y-69328536D01*
X91856285Y-69667391D01*
X91281723Y-69840967D01*
X91066152Y-69855111D01*
X90848459Y-69880585D01*
X90634772Y-69978120D01*
X90376548Y-70179385D01*
X90025248Y-70516049D01*
X89973833Y-70567757D01*
X89267521Y-71280403D01*
X89508841Y-71499090D01*
X89764411Y-71620786D01*
X90185621Y-71706569D01*
X90714983Y-71755035D01*
X91295012Y-71764779D01*
X91868221Y-71734397D01*
X92377126Y-71662485D01*
X92691943Y-71576847D01*
X93403907Y-71206595D01*
X94044138Y-70668004D01*
X94580395Y-70006173D01*
X94980440Y-69266202D01*
X95212033Y-68493191D01*
X95256953Y-67988670D01*
X95225111Y-67539326D01*
X95143454Y-67092144D01*
X95028846Y-66708303D01*
X94898146Y-66448985D01*
X94812541Y-66376180D01*
X94656685Y-66427601D01*
G37*
X94656685Y-66427601D02*
X94401411Y-66616950D01*
X94085547Y-66903649D01*
X93747920Y-67247122D01*
X93427358Y-67606791D01*
X93162690Y-67942081D01*
X92992741Y-68212414D01*
X92953701Y-68318764D01*
X92742577Y-68865346D01*
X92360004Y-69328536D01*
X91856285Y-69667391D01*
X91281723Y-69840967D01*
X91066152Y-69855111D01*
X90848459Y-69880585D01*
X90634772Y-69978120D01*
X90376548Y-70179385D01*
X90025248Y-70516049D01*
X89973833Y-70567757D01*
X89267521Y-71280403D01*
X89508841Y-71499090D01*
X89764411Y-71620786D01*
X90185621Y-71706569D01*
X90714983Y-71755035D01*
X91295012Y-71764779D01*
X91868221Y-71734397D01*
X92377126Y-71662485D01*
X92691943Y-71576847D01*
X93403907Y-71206595D01*
X94044138Y-70668004D01*
X94580395Y-70006173D01*
X94980440Y-69266202D01*
X95212033Y-68493191D01*
X95256953Y-67988670D01*
X95225111Y-67539326D01*
X95143454Y-67092144D01*
X95028846Y-66708303D01*
X94898146Y-66448985D01*
X94812541Y-66376180D01*
X94656685Y-66427601D01*
G36*
X99915333Y-66583812D02*
G01*
X99164084Y-66587899D01*
X98600015Y-66600243D01*
X98184585Y-66624152D01*
X97879250Y-66662933D01*
X97645468Y-66719894D01*
X97451436Y-66795269D01*
X97028914Y-67100743D01*
X96751084Y-67536367D01*
X96629384Y-68050033D01*
X96675252Y-68589631D01*
X96900124Y-69103052D01*
X96934042Y-69152557D01*
X97123912Y-69371232D01*
X97371598Y-69540424D01*
X97741135Y-69697968D01*
X98017394Y-69792666D01*
X98090676Y-69843318D01*
X98077148Y-69940685D01*
X97957907Y-70111303D01*
X97714052Y-70381705D01*
X97326681Y-70778427D01*
X97286109Y-70819248D01*
X96336096Y-71774222D01*
X98591712Y-71774222D01*
X100255411Y-70107744D01*
X101919111Y-68441266D01*
X101919111Y-67936000D01*
X100268019Y-67936000D01*
X99943555Y-68274666D01*
X99711477Y-68481570D01*
X99471508Y-68582293D01*
X99126538Y-68612575D01*
X99023296Y-68613333D01*
X98645135Y-68594788D01*
X98427482Y-68526249D01*
X98310638Y-68394977D01*
X98218729Y-68190197D01*
X98226357Y-68057142D01*
X98364047Y-67980588D01*
X98662327Y-67945308D01*
X99151720Y-67936080D01*
X99230898Y-67936000D01*
X100268019Y-67936000D01*
X101919111Y-67936000D01*
X101919111Y-66581333D01*
X99915333Y-66583812D01*
G37*
X99915333Y-66583812D02*
X99164084Y-66587899D01*
X98600015Y-66600243D01*
X98184585Y-66624152D01*
X97879250Y-66662933D01*
X97645468Y-66719894D01*
X97451436Y-66795269D01*
X97028914Y-67100743D01*
X96751084Y-67536367D01*
X96629384Y-68050033D01*
X96675252Y-68589631D01*
X96900124Y-69103052D01*
X96934042Y-69152557D01*
X97123912Y-69371232D01*
X97371598Y-69540424D01*
X97741135Y-69697968D01*
X98017394Y-69792666D01*
X98090676Y-69843318D01*
X98077148Y-69940685D01*
X97957907Y-70111303D01*
X97714052Y-70381705D01*
X97326681Y-70778427D01*
X97286109Y-70819248D01*
X96336096Y-71774222D01*
X98591712Y-71774222D01*
X100255411Y-70107744D01*
X101919111Y-68441266D01*
X101919111Y-67936000D01*
X100268019Y-67936000D01*
X99943555Y-68274666D01*
X99711477Y-68481570D01*
X99471508Y-68582293D01*
X99126538Y-68612575D01*
X99023296Y-68613333D01*
X98645135Y-68594788D01*
X98427482Y-68526249D01*
X98310638Y-68394977D01*
X98218729Y-68190197D01*
X98226357Y-68057142D01*
X98364047Y-67980588D01*
X98662327Y-67945308D01*
X99151720Y-67936080D01*
X99230898Y-67936000D01*
X100268019Y-67936000D01*
X101919111Y-67936000D01*
X101919111Y-66581333D01*
X99915333Y-66583812D01*
G36*
X107421311Y-68916590D02*
G01*
X107158006Y-69117398D01*
X106847403Y-69394092D01*
X106538578Y-69699230D01*
X106280607Y-69985369D01*
X106122564Y-70205065D01*
X106096000Y-70281717D01*
X106030954Y-70340344D01*
X105820509Y-70381304D01*
X105441705Y-70406600D01*
X104871583Y-70418235D01*
X104515555Y-70419555D01*
X102935111Y-70419555D01*
X102935111Y-71774222D01*
X107789333Y-71774222D01*
X107789333Y-70306666D01*
X107786774Y-69705011D01*
X107775853Y-69293607D01*
X107751706Y-69036953D01*
X107709469Y-68899548D01*
X107644278Y-68845893D01*
X107588244Y-68839111D01*
X107421311Y-68916590D01*
G37*
X107421311Y-68916590D02*
X107158006Y-69117398D01*
X106847403Y-69394092D01*
X106538578Y-69699230D01*
X106280607Y-69985369D01*
X106122564Y-70205065D01*
X106096000Y-70281717D01*
X106030954Y-70340344D01*
X105820509Y-70381304D01*
X105441705Y-70406600D01*
X104871583Y-70418235D01*
X104515555Y-70419555D01*
X102935111Y-70419555D01*
X102935111Y-71774222D01*
X107789333Y-71774222D01*
X107789333Y-70306666D01*
X107786774Y-69705011D01*
X107775853Y-69293607D01*
X107751706Y-69036953D01*
X107709469Y-68899548D01*
X107644278Y-68845893D01*
X107588244Y-68839111D01*
X107421311Y-68916590D01*
G36*
X113393065Y-69364764D02*
G01*
X113142322Y-69563486D01*
X112818245Y-69851473D01*
X112635348Y-70024444D01*
X112279846Y-70346616D01*
X111962330Y-70596779D01*
X111730574Y-70738917D01*
X111662036Y-70758222D01*
X111474388Y-70834950D01*
X111201355Y-71034428D01*
X110950222Y-71266222D01*
X110451658Y-71774222D01*
X113659555Y-71774222D01*
X113659555Y-70532444D01*
X113650500Y-69927769D01*
X113622166Y-69531740D01*
X113572804Y-69327905D01*
X113527482Y-69290666D01*
X113393065Y-69364764D01*
G37*
X113393065Y-69364764D02*
X113142322Y-69563486D01*
X112818245Y-69851473D01*
X112635348Y-70024444D01*
X112279846Y-70346616D01*
X111962330Y-70596779D01*
X111730574Y-70738917D01*
X111662036Y-70758222D01*
X111474388Y-70834950D01*
X111201355Y-71034428D01*
X110950222Y-71266222D01*
X110451658Y-71774222D01*
X113659555Y-71774222D01*
X113659555Y-70532444D01*
X113650500Y-69927769D01*
X113622166Y-69531740D01*
X113572804Y-69327905D01*
X113527482Y-69290666D01*
X113393065Y-69364764D01*
G36*
X118117528Y-70051023D02*
G01*
X117837823Y-70266703D01*
X117521620Y-70564956D01*
X117216968Y-70895696D01*
X116971915Y-71208839D01*
X116834509Y-71454299D01*
X116820444Y-71523495D01*
X116835408Y-71651243D01*
X116911844Y-71726153D01*
X117097068Y-71762238D01*
X117438396Y-71773510D01*
X117667111Y-71774222D01*
X118513778Y-71774222D01*
X118513778Y-70871111D01*
X118507979Y-70418031D01*
X118484004Y-70146249D01*
X118431981Y-70011435D01*
X118342040Y-69969262D01*
X118312688Y-69968000D01*
X118117528Y-70051023D01*
G37*
X118117528Y-70051023D02*
X117837823Y-70266703D01*
X117521620Y-70564956D01*
X117216968Y-70895696D01*
X116971915Y-71208839D01*
X116834509Y-71454299D01*
X116820444Y-71523495D01*
X116835408Y-71651243D01*
X116911844Y-71726153D01*
X117097068Y-71762238D01*
X117438396Y-71773510D01*
X117667111Y-71774222D01*
X118513778Y-71774222D01*
X118513778Y-70871111D01*
X118507979Y-70418031D01*
X118484004Y-70146249D01*
X118431981Y-70011435D01*
X118342040Y-69969262D01*
X118312688Y-69968000D01*
X118117528Y-70051023D01*
G36*
X128862018Y-66427601D02*
G01*
X128606744Y-66616950D01*
X128290880Y-66903649D01*
X127953253Y-67247122D01*
X127632692Y-67606791D01*
X127368023Y-67942081D01*
X127198075Y-68212414D01*
X127159035Y-68318764D01*
X126947910Y-68865346D01*
X126565338Y-69328536D01*
X126061619Y-69667391D01*
X125487056Y-69840967D01*
X125271485Y-69855111D01*
X125053793Y-69880585D01*
X124840105Y-69978120D01*
X124581881Y-70179385D01*
X124230581Y-70516049D01*
X124179166Y-70567757D01*
X123472855Y-71280403D01*
X123714174Y-71499090D01*
X123969745Y-71620786D01*
X124390954Y-71706569D01*
X124920316Y-71755035D01*
X125500345Y-71764779D01*
X126073555Y-71734397D01*
X126582459Y-71662485D01*
X126897276Y-71576847D01*
X127609240Y-71206595D01*
X128249471Y-70668004D01*
X128785729Y-70006173D01*
X129185774Y-69266202D01*
X129417366Y-68493191D01*
X129462286Y-67988670D01*
X129430444Y-67539326D01*
X129348788Y-67092144D01*
X129234179Y-66708303D01*
X129103479Y-66448985D01*
X129017875Y-66376180D01*
X128862018Y-66427601D01*
G37*
X128862018Y-66427601D02*
X128606744Y-66616950D01*
X128290880Y-66903649D01*
X127953253Y-67247122D01*
X127632692Y-67606791D01*
X127368023Y-67942081D01*
X127198075Y-68212414D01*
X127159035Y-68318764D01*
X126947910Y-68865346D01*
X126565338Y-69328536D01*
X126061619Y-69667391D01*
X125487056Y-69840967D01*
X125271485Y-69855111D01*
X125053793Y-69880585D01*
X124840105Y-69978120D01*
X124581881Y-70179385D01*
X124230581Y-70516049D01*
X124179166Y-70567757D01*
X123472855Y-71280403D01*
X123714174Y-71499090D01*
X123969745Y-71620786D01*
X124390954Y-71706569D01*
X124920316Y-71755035D01*
X125500345Y-71764779D01*
X126073555Y-71734397D01*
X126582459Y-71662485D01*
X126897276Y-71576847D01*
X127609240Y-71206595D01*
X128249471Y-70668004D01*
X128785729Y-70006173D01*
X129185774Y-69266202D01*
X129417366Y-68493191D01*
X129462286Y-67988670D01*
X129430444Y-67539326D01*
X129348788Y-67092144D01*
X129234179Y-66708303D01*
X129103479Y-66448985D01*
X129017875Y-66376180D01*
X128862018Y-66427601D01*
G36*
X101538897Y-69255626D02*
G01*
X101268630Y-69462339D01*
X100950654Y-69757670D01*
X100863851Y-69846730D01*
X100549676Y-70182593D01*
X100360461Y-70423111D01*
X100264527Y-70635544D01*
X100230193Y-70887149D01*
X100225778Y-71201397D01*
X100225778Y-71887111D01*
X101919111Y-71887111D01*
X101919111Y-70532444D01*
X101916429Y-69959050D01*
X101904574Y-69574311D01*
X101877835Y-69341128D01*
X101830498Y-69222405D01*
X101756852Y-69181044D01*
X101710517Y-69177777D01*
X101538897Y-69255626D01*
G37*
X101538897Y-69255626D02*
X101268630Y-69462339D01*
X100950654Y-69757670D01*
X100863851Y-69846730D01*
X100549676Y-70182593D01*
X100360461Y-70423111D01*
X100264527Y-70635544D01*
X100230193Y-70887149D01*
X100225778Y-71201397D01*
X100225778Y-71887111D01*
X101919111Y-71887111D01*
X101919111Y-70532444D01*
X101916429Y-69959050D01*
X101904574Y-69574311D01*
X101877835Y-69341128D01*
X101830498Y-69222405D01*
X101756852Y-69181044D01*
X101710517Y-69177777D01*
X101538897Y-69255626D01*
G36*
X117971033Y-72254552D02*
G01*
X117144282Y-72442813D01*
X116373547Y-72798341D01*
X115691023Y-73315100D01*
X115128904Y-73987055D01*
X114852844Y-74483555D01*
X114698626Y-74837724D01*
X114593682Y-75120145D01*
X114563769Y-75245555D01*
X114632098Y-75315516D01*
X114855677Y-75359758D01*
X115260424Y-75381574D01*
X115663333Y-75385269D01*
X116764000Y-75383871D01*
X117021534Y-74986349D01*
X117440288Y-74518045D01*
X117939247Y-74240053D01*
X118477870Y-74151909D01*
X119015618Y-74253149D01*
X119511948Y-74543307D01*
X119924889Y-75019641D01*
X120100376Y-75254349D01*
X120245982Y-75377273D01*
X120266817Y-75382318D01*
X120392389Y-75308513D01*
X120631881Y-75107094D01*
X120943778Y-74814202D01*
X121113483Y-74645178D01*
X121844000Y-73903689D01*
X121194305Y-73294866D01*
X120465436Y-72753715D01*
X119663804Y-72403968D01*
X118821605Y-72239592D01*
X117971033Y-72254552D01*
G37*
X117971033Y-72254552D02*
X117144282Y-72442813D01*
X116373547Y-72798341D01*
X115691023Y-73315100D01*
X115128904Y-73987055D01*
X114852844Y-74483555D01*
X114698626Y-74837724D01*
X114593682Y-75120145D01*
X114563769Y-75245555D01*
X114632098Y-75315516D01*
X114855677Y-75359758D01*
X115260424Y-75381574D01*
X115663333Y-75385269D01*
X116764000Y-75383871D01*
X117021534Y-74986349D01*
X117440288Y-74518045D01*
X117939247Y-74240053D01*
X118477870Y-74151909D01*
X119015618Y-74253149D01*
X119511948Y-74543307D01*
X119924889Y-75019641D01*
X120100376Y-75254349D01*
X120245982Y-75377273D01*
X120266817Y-75382318D01*
X120392389Y-75308513D01*
X120631881Y-75107094D01*
X120943778Y-74814202D01*
X121113483Y-74645178D01*
X121844000Y-73903689D01*
X121194305Y-73294866D01*
X120465436Y-72753715D01*
X119663804Y-72403968D01*
X118821605Y-72239592D01*
X117971033Y-72254552D01*
G36*
X97177778Y-75612444D02*
G01*
X97189111Y-76098770D01*
X97226081Y-76388116D01*
X97293140Y-76508286D01*
X97322423Y-76515555D01*
X97464793Y-76439829D01*
X97714474Y-76238712D01*
X98024111Y-75951300D01*
X98112645Y-75863170D01*
X98465501Y-75473716D01*
X98688869Y-75155929D01*
X98758222Y-74960059D01*
X98742075Y-74828804D01*
X98661036Y-74753653D01*
X98466211Y-74719092D01*
X98108703Y-74709608D01*
X97968000Y-74709333D01*
X97177778Y-74709333D01*
X97177778Y-75612444D01*
G37*
X97177778Y-75612444D02*
X97189111Y-76098770D01*
X97226081Y-76388116D01*
X97293140Y-76508286D01*
X97322423Y-76515555D01*
X97464793Y-76439829D01*
X97714474Y-76238712D01*
X98024111Y-75951300D01*
X98112645Y-75863170D01*
X98465501Y-75473716D01*
X98688869Y-75155929D01*
X98758222Y-74960059D01*
X98742075Y-74828804D01*
X98661036Y-74753653D01*
X98466211Y-74719092D01*
X98108703Y-74709608D01*
X97968000Y-74709333D01*
X97177778Y-74709333D01*
X97177778Y-75612444D01*
G36*
X90517333Y-75668888D02*
G01*
X90531128Y-76179737D01*
X90570871Y-76505954D01*
X90634096Y-76628036D01*
X90638603Y-76628444D01*
X90771724Y-76555136D01*
X91018386Y-76360295D01*
X91331993Y-76081547D01*
X91428825Y-75990371D01*
X91791931Y-75622078D01*
X92002716Y-75345778D01*
X92090516Y-75119392D01*
X92097778Y-75030816D01*
X92097778Y-74709333D01*
X90517333Y-74709333D01*
X90517333Y-75668888D01*
G37*
X90517333Y-75668888D02*
X90531128Y-76179737D01*
X90570871Y-76505954D01*
X90634096Y-76628036D01*
X90638603Y-76628444D01*
X90771724Y-76555136D01*
X91018386Y-76360295D01*
X91331993Y-76081547D01*
X91428825Y-75990371D01*
X91791931Y-75622078D01*
X92002716Y-75345778D01*
X92090516Y-75119392D01*
X92097778Y-75030816D01*
X92097778Y-74709333D01*
X90517333Y-74709333D01*
X90517333Y-75668888D01*
G36*
X111853333Y-75668888D02*
G01*
X111867128Y-76179737D01*
X111906871Y-76505954D01*
X111970096Y-76628036D01*
X111974603Y-76628444D01*
X112107724Y-76555136D01*
X112354386Y-76360295D01*
X112667993Y-76081547D01*
X112764825Y-75990371D01*
X113127931Y-75622078D01*
X113338716Y-75345778D01*
X113426516Y-75119392D01*
X113433778Y-75030816D01*
X113433778Y-74709333D01*
X111853333Y-74709333D01*
X111853333Y-75668888D01*
G37*
X111853333Y-75668888D02*
X111867128Y-76179737D01*
X111906871Y-76505954D01*
X111970096Y-76628036D01*
X111974603Y-76628444D01*
X112107724Y-76555136D01*
X112354386Y-76360295D01*
X112667993Y-76081547D01*
X112764825Y-75990371D01*
X113127931Y-75622078D01*
X113338716Y-75345778D01*
X113426516Y-75119392D01*
X113433778Y-75030816D01*
X113433778Y-74709333D01*
X111853333Y-74709333D01*
X111853333Y-75668888D01*
G36*
X101851170Y-74540147D02*
G01*
X101464745Y-74600044D01*
X101115950Y-74679145D01*
X100869941Y-74765410D01*
X100790222Y-74837647D01*
X100700310Y-74927517D01*
X100643799Y-74935111D01*
X100455502Y-75025977D01*
X100201619Y-75263054D01*
X99922290Y-75593062D01*
X99657657Y-75962719D01*
X99447862Y-76318744D01*
X99333044Y-76607855D01*
X99322667Y-76688718D01*
X99426189Y-76714162D01*
X99699342Y-76732625D01*
X100086005Y-76740548D01*
X100141111Y-76740619D01*
X100567308Y-76735188D01*
X100828213Y-76706278D01*
X100984288Y-76633582D01*
X101095995Y-76496791D01*
X101152446Y-76400932D01*
X101470953Y-76054009D01*
X101911886Y-75879022D01*
X102348382Y-75879408D01*
X102669074Y-75990314D01*
X102976868Y-76189298D01*
X103200694Y-76420886D01*
X103271827Y-76600222D01*
X103318315Y-76725547D01*
X103461523Y-76691681D01*
X103715461Y-76491105D01*
X104008193Y-76205111D01*
X104531872Y-75668888D01*
X104019569Y-75202489D01*
X103684364Y-74936746D01*
X103354219Y-74737975D01*
X103164744Y-74666267D01*
X102782988Y-74588515D01*
X102476277Y-74526118D01*
X102210067Y-74511492D01*
X101851170Y-74540147D01*
G37*
X101851170Y-74540147D02*
X101464745Y-74600044D01*
X101115950Y-74679145D01*
X100869941Y-74765410D01*
X100790222Y-74837647D01*
X100700310Y-74927517D01*
X100643799Y-74935111D01*
X100455502Y-75025977D01*
X100201619Y-75263054D01*
X99922290Y-75593062D01*
X99657657Y-75962719D01*
X99447862Y-76318744D01*
X99333044Y-76607855D01*
X99322667Y-76688718D01*
X99426189Y-76714162D01*
X99699342Y-76732625D01*
X100086005Y-76740548D01*
X100141111Y-76740619D01*
X100567308Y-76735188D01*
X100828213Y-76706278D01*
X100984288Y-76633582D01*
X101095995Y-76496791D01*
X101152446Y-76400932D01*
X101470953Y-76054009D01*
X101911886Y-75879022D01*
X102348382Y-75879408D01*
X102669074Y-75990314D01*
X102976868Y-76189298D01*
X103200694Y-76420886D01*
X103271827Y-76600222D01*
X103318315Y-76725547D01*
X103461523Y-76691681D01*
X103715461Y-76491105D01*
X104008193Y-76205111D01*
X104531872Y-75668888D01*
X104019569Y-75202489D01*
X103684364Y-74936746D01*
X103354219Y-74737975D01*
X103164744Y-74666267D01*
X102782988Y-74588515D01*
X102476277Y-74526118D01*
X102210067Y-74511492D01*
X101851170Y-74540147D01*
G36*
X83856889Y-75838222D02*
G01*
X85776000Y-75838222D01*
X85776000Y-76854222D01*
X85785426Y-77372475D01*
X85816398Y-77694023D01*
X85872960Y-77847259D01*
X85920645Y-77870222D01*
X86062986Y-77794245D01*
X86311845Y-77592587D01*
X86619722Y-77304658D01*
X86703004Y-77221111D01*
X87106333Y-76768122D01*
X87326782Y-76412929D01*
X87376803Y-76233333D01*
X87412889Y-75894666D01*
X88400667Y-75862049D01*
X89388444Y-75829432D01*
X89388444Y-74596444D01*
X83856889Y-74596444D01*
X83856889Y-75838222D01*
G37*
X83856889Y-75838222D02*
X85776000Y-75838222D01*
X85776000Y-76854222D01*
X85785426Y-77372475D01*
X85816398Y-77694023D01*
X85872960Y-77847259D01*
X85920645Y-77870222D01*
X86062986Y-77794245D01*
X86311845Y-77592587D01*
X86619722Y-77304658D01*
X86703004Y-77221111D01*
X87106333Y-76768122D01*
X87326782Y-76412929D01*
X87376803Y-76233333D01*
X87412889Y-75894666D01*
X88400667Y-75862049D01*
X89388444Y-75829432D01*
X89388444Y-74596444D01*
X83856889Y-74596444D01*
X83856889Y-75838222D01*
G36*
X115209089Y-76750037D02*
G01*
X114835957Y-76773494D01*
X114609028Y-76807716D01*
X114562667Y-76834112D01*
X114596538Y-76987565D01*
X114682722Y-77273947D01*
X114742389Y-77454346D01*
X114890875Y-77769469D01*
X115123682Y-78136410D01*
X115400225Y-78504582D01*
X115679921Y-78823393D01*
X115922188Y-79042254D01*
X116072167Y-79112000D01*
X116206849Y-79036309D01*
X116453433Y-78833904D01*
X116768349Y-78541786D01*
X116917783Y-78393911D01*
X117258569Y-78037981D01*
X117447780Y-77805208D01*
X117503112Y-77669336D01*
X117448525Y-77606380D01*
X117278036Y-77469247D01*
X117080308Y-77215316D01*
X117032852Y-77139135D01*
X116798143Y-76741333D01*
X115680405Y-76741333D01*
X115209089Y-76750037D01*
G37*
X115209089Y-76750037D02*
X114835957Y-76773494D01*
X114609028Y-76807716D01*
X114562667Y-76834112D01*
X114596538Y-76987565D01*
X114682722Y-77273947D01*
X114742389Y-77454346D01*
X114890875Y-77769469D01*
X115123682Y-78136410D01*
X115400225Y-78504582D01*
X115679921Y-78823393D01*
X115922188Y-79042254D01*
X116072167Y-79112000D01*
X116206849Y-79036309D01*
X116453433Y-78833904D01*
X116768349Y-78541786D01*
X116917783Y-78393911D01*
X117258569Y-78037981D01*
X117447780Y-77805208D01*
X117503112Y-77669336D01*
X117448525Y-77606380D01*
X117278036Y-77469247D01*
X117080308Y-77215316D01*
X117032852Y-77139135D01*
X116798143Y-76741333D01*
X115680405Y-76741333D01*
X115209089Y-76750037D01*
G36*
X93113778Y-76102502D02*
G01*
X93132746Y-76941858D01*
X93196101Y-77602283D01*
X93313520Y-78127939D01*
X93494678Y-78562988D01*
X93733561Y-78931182D01*
X94012601Y-79221032D01*
X94285314Y-79316213D01*
X94590585Y-79216113D01*
X94967296Y-78920120D01*
X94976444Y-78911621D01*
X95428000Y-78491111D01*
X95131976Y-78182215D01*
X94961109Y-77973424D01*
X94840361Y-77733664D01*
X94761553Y-77420982D01*
X94716505Y-76993422D01*
X94697036Y-76409030D01*
X94694222Y-75937000D01*
X94694222Y-74709333D01*
X93113778Y-74709333D01*
X93113778Y-76102502D01*
G37*
X93113778Y-76102502D02*
X93132746Y-76941858D01*
X93196101Y-77602283D01*
X93313520Y-78127939D01*
X93494678Y-78562988D01*
X93733561Y-78931182D01*
X94012601Y-79221032D01*
X94285314Y-79316213D01*
X94590585Y-79216113D01*
X94967296Y-78920120D01*
X94976444Y-78911621D01*
X95428000Y-78491111D01*
X95131976Y-78182215D01*
X94961109Y-77973424D01*
X94840361Y-77733664D01*
X94761553Y-77420982D01*
X94716505Y-76993422D01*
X94697036Y-76409030D01*
X94694222Y-75937000D01*
X94694222Y-74709333D01*
X93113778Y-74709333D01*
X93113778Y-76102502D01*
G36*
X99751298Y-77649777D02*
G01*
X99457334Y-77663862D01*
X99325104Y-77683826D01*
X99322667Y-77687102D01*
X99385630Y-77924797D01*
X99548773Y-78252277D01*
X99773477Y-78613252D01*
X100021125Y-78951429D01*
X100253097Y-79210517D01*
X100430774Y-79334223D01*
X100455101Y-79337777D01*
X100566901Y-79264442D01*
X100786949Y-79073211D01*
X101036877Y-78835344D01*
X101322268Y-78528234D01*
X101430087Y-78342210D01*
X101393167Y-78274068D01*
X101234944Y-78134124D01*
X101109792Y-77929834D01*
X101026396Y-77782486D01*
X100906317Y-77697039D01*
X100693377Y-77656770D01*
X100331401Y-77644954D01*
X100151213Y-77644444D01*
X99751298Y-77649777D01*
G37*
X99751298Y-77649777D02*
X99457334Y-77663862D01*
X99325104Y-77683826D01*
X99322667Y-77687102D01*
X99385630Y-77924797D01*
X99548773Y-78252277D01*
X99773477Y-78613252D01*
X100021125Y-78951429D01*
X100253097Y-79210517D01*
X100430774Y-79334223D01*
X100455101Y-79337777D01*
X100566901Y-79264442D01*
X100786949Y-79073211D01*
X101036877Y-78835344D01*
X101322268Y-78528234D01*
X101430087Y-78342210D01*
X101393167Y-78274068D01*
X101234944Y-78134124D01*
X101109792Y-77929834D01*
X101026396Y-77782486D01*
X100906317Y-77697039D01*
X100693377Y-77656770D01*
X100331401Y-77644954D01*
X100151213Y-77644444D01*
X99751298Y-77649777D01*
G36*
X77760889Y-75838222D02*
G01*
X79609733Y-75838222D01*
X80373342Y-75843816D01*
X80936324Y-75864531D01*
X81323641Y-75906270D01*
X81560257Y-75974934D01*
X81671132Y-76076424D01*
X81681229Y-76216641D01*
X81649798Y-76320517D01*
X81577889Y-76396983D01*
X81407267Y-76451980D01*
X81103248Y-76490607D01*
X80631147Y-76517963D01*
X80208517Y-76532381D01*
X79608880Y-76554200D01*
X79186794Y-76584484D01*
X78894032Y-76631366D01*
X78682368Y-76702978D01*
X78503574Y-76807451D01*
X78480362Y-76823776D01*
X78080169Y-77227813D01*
X77849817Y-77714195D01*
X77780814Y-78238489D01*
X77864664Y-78756264D01*
X78092876Y-79223089D01*
X78456955Y-79594531D01*
X78948409Y-79826159D01*
X79059111Y-79851393D01*
X79251188Y-79865879D01*
X79430594Y-79806789D01*
X79648814Y-79643784D01*
X79957333Y-79346528D01*
X80014810Y-79288252D01*
X80631843Y-78660444D01*
X80113300Y-78660444D01*
X79674835Y-78606171D01*
X79426386Y-78447002D01*
X79374977Y-78188415D01*
X79396058Y-78101417D01*
X79443610Y-78001009D01*
X79537497Y-77934741D01*
X79718650Y-77895588D01*
X80028001Y-77876527D01*
X80506483Y-77870534D01*
X80743357Y-77870222D01*
X81314874Y-77865611D01*
X81712705Y-77846437D01*
X81988849Y-77804688D01*
X82195302Y-77732351D01*
X82384063Y-77621413D01*
X82391742Y-77616222D01*
X82690876Y-77350517D01*
X82970635Y-77004594D01*
X83029926Y-76910666D01*
X83224174Y-76378946D01*
X83212350Y-75849389D01*
X83010171Y-75366415D01*
X82633352Y-74974447D01*
X82275616Y-74778617D01*
X82051784Y-74708722D01*
X81758679Y-74658238D01*
X81360503Y-74624539D01*
X80821461Y-74605003D01*
X80105758Y-74597005D01*
X79790604Y-74596444D01*
X77760889Y-74596444D01*
X77760889Y-75838222D01*
G37*
X77760889Y-75838222D02*
X79609733Y-75838222D01*
X80373342Y-75843816D01*
X80936324Y-75864531D01*
X81323641Y-75906270D01*
X81560257Y-75974934D01*
X81671132Y-76076424D01*
X81681229Y-76216641D01*
X81649798Y-76320517D01*
X81577889Y-76396983D01*
X81407267Y-76451980D01*
X81103248Y-76490607D01*
X80631147Y-76517963D01*
X80208517Y-76532381D01*
X79608880Y-76554200D01*
X79186794Y-76584484D01*
X78894032Y-76631366D01*
X78682368Y-76702978D01*
X78503574Y-76807451D01*
X78480362Y-76823776D01*
X78080169Y-77227813D01*
X77849817Y-77714195D01*
X77780814Y-78238489D01*
X77864664Y-78756264D01*
X78092876Y-79223089D01*
X78456955Y-79594531D01*
X78948409Y-79826159D01*
X79059111Y-79851393D01*
X79251188Y-79865879D01*
X79430594Y-79806789D01*
X79648814Y-79643784D01*
X79957333Y-79346528D01*
X80014810Y-79288252D01*
X80631843Y-78660444D01*
X80113300Y-78660444D01*
X79674835Y-78606171D01*
X79426386Y-78447002D01*
X79374977Y-78188415D01*
X79396058Y-78101417D01*
X79443610Y-78001009D01*
X79537497Y-77934741D01*
X79718650Y-77895588D01*
X80028001Y-77876527D01*
X80506483Y-77870534D01*
X80743357Y-77870222D01*
X81314874Y-77865611D01*
X81712705Y-77846437D01*
X81988849Y-77804688D01*
X82195302Y-77732351D01*
X82384063Y-77621413D01*
X82391742Y-77616222D01*
X82690876Y-77350517D01*
X82970635Y-77004594D01*
X83029926Y-76910666D01*
X83224174Y-76378946D01*
X83212350Y-75849389D01*
X83010171Y-75366415D01*
X82633352Y-74974447D01*
X82275616Y-74778617D01*
X82051784Y-74708722D01*
X81758679Y-74658238D01*
X81360503Y-74624539D01*
X80821461Y-74605003D01*
X80105758Y-74597005D01*
X79790604Y-74596444D01*
X77760889Y-74596444D01*
X77760889Y-75838222D01*
G36*
X86963847Y-77334135D02*
G01*
X86632840Y-77634640D01*
X86421577Y-77845273D01*
X85776000Y-78497658D01*
X85776000Y-79902222D01*
X87469333Y-79902222D01*
X87469333Y-78547555D01*
X87461180Y-77902308D01*
X87424653Y-77470474D01*
X87341655Y-77239921D01*
X87194086Y-77198518D01*
X86963847Y-77334135D01*
G37*
X86963847Y-77334135D02*
X86632840Y-77634640D01*
X86421577Y-77845273D01*
X85776000Y-78497658D01*
X85776000Y-79902222D01*
X87469333Y-79902222D01*
X87469333Y-78547555D01*
X87461180Y-77902308D01*
X87424653Y-77470474D01*
X87341655Y-77239921D01*
X87194086Y-77198518D01*
X86963847Y-77334135D01*
G36*
X91626346Y-76067420D02*
G01*
X91354289Y-76306161D01*
X91056829Y-76596688D01*
X90404444Y-77242265D01*
X90404444Y-79902222D01*
X92097778Y-79902222D01*
X92097778Y-77926666D01*
X92095072Y-77145277D01*
X92078643Y-76573732D01*
X92036024Y-76196104D01*
X91954746Y-75996462D01*
X91822343Y-75958877D01*
X91626346Y-76067420D01*
G37*
X91626346Y-76067420D02*
X91354289Y-76306161D01*
X91056829Y-76596688D01*
X90404444Y-77242265D01*
X90404444Y-79902222D01*
X92097778Y-79902222D01*
X92097778Y-77926666D01*
X92095072Y-77145277D01*
X92078643Y-76573732D01*
X92036024Y-76196104D01*
X91954746Y-75996462D01*
X91822343Y-75958877D01*
X91626346Y-76067420D01*
G36*
X98424863Y-75925148D02*
G01*
X98155893Y-76153732D01*
X97848452Y-76475682D01*
X97544328Y-76842708D01*
X97285309Y-77206516D01*
X97113182Y-77518815D01*
X97080299Y-77610165D01*
X96872499Y-78053482D01*
X96557478Y-78378732D01*
X96185667Y-78538770D01*
X96077554Y-78547555D01*
X95877190Y-78612167D01*
X95585451Y-78777037D01*
X95261937Y-78998719D01*
X94966251Y-79233767D01*
X94757992Y-79438734D01*
X94694222Y-79555947D01*
X94796981Y-79701265D01*
X95071066Y-79806384D01*
X95465185Y-79868763D01*
X95928049Y-79885860D01*
X96408367Y-79855133D01*
X96854850Y-79774041D01*
X97140009Y-79677153D01*
X97638291Y-79369206D01*
X98102348Y-78932020D01*
X98462418Y-78438991D01*
X98602459Y-78138555D01*
X98679309Y-77816313D01*
X98730570Y-77400688D01*
X98755977Y-76946588D01*
X98755266Y-76508921D01*
X98728170Y-76142596D01*
X98674424Y-75902519D01*
X98613577Y-75838222D01*
X98424863Y-75925148D01*
G37*
X98424863Y-75925148D02*
X98155893Y-76153732D01*
X97848452Y-76475682D01*
X97544328Y-76842708D01*
X97285309Y-77206516D01*
X97113182Y-77518815D01*
X97080299Y-77610165D01*
X96872499Y-78053482D01*
X96557478Y-78378732D01*
X96185667Y-78538770D01*
X96077554Y-78547555D01*
X95877190Y-78612167D01*
X95585451Y-78777037D01*
X95261937Y-78998719D01*
X94966251Y-79233767D01*
X94757992Y-79438734D01*
X94694222Y-79555947D01*
X94796981Y-79701265D01*
X95071066Y-79806384D01*
X95465185Y-79868763D01*
X95928049Y-79885860D01*
X96408367Y-79855133D01*
X96854850Y-79774041D01*
X97140009Y-79677153D01*
X97638291Y-79369206D01*
X98102348Y-78932020D01*
X98462418Y-78438991D01*
X98602459Y-78138555D01*
X98679309Y-77816313D01*
X98730570Y-77400688D01*
X98755977Y-76946588D01*
X98755266Y-76508921D01*
X98728170Y-76142596D01*
X98674424Y-75902519D01*
X98613577Y-75838222D01*
X98424863Y-75925148D01*
G36*
X104473387Y-76194454D02*
G01*
X104212339Y-76409574D01*
X103929980Y-76692843D01*
X103663625Y-77006225D01*
X103450587Y-77311682D01*
X103328179Y-77571177D01*
X103317980Y-77613553D01*
X103136796Y-78001322D01*
X102779845Y-78305434D01*
X102291709Y-78491431D01*
X102150362Y-78515983D01*
X101827569Y-78606726D01*
X101506958Y-78813324D01*
X101186340Y-79110977D01*
X100657828Y-79647558D01*
X101023093Y-79774890D01*
X101391197Y-79850367D01*
X101886268Y-79886055D01*
X102412886Y-79881143D01*
X102875630Y-79834825D01*
X103065764Y-79792190D01*
X103654205Y-79508854D01*
X104189874Y-79057793D01*
X104617064Y-78497043D01*
X104873514Y-77908972D01*
X104928869Y-77509063D01*
X104927623Y-77002345D01*
X104875400Y-76499042D01*
X104782300Y-76120818D01*
X104675812Y-76085523D01*
X104473387Y-76194454D01*
G37*
X104473387Y-76194454D02*
X104212339Y-76409574D01*
X103929980Y-76692843D01*
X103663625Y-77006225D01*
X103450587Y-77311682D01*
X103328179Y-77571177D01*
X103317980Y-77613553D01*
X103136796Y-78001322D01*
X102779845Y-78305434D01*
X102291709Y-78491431D01*
X102150362Y-78515983D01*
X101827569Y-78606726D01*
X101506958Y-78813324D01*
X101186340Y-79110977D01*
X100657828Y-79647558D01*
X101023093Y-79774890D01*
X101391197Y-79850367D01*
X101886268Y-79886055D01*
X102412886Y-79881143D01*
X102875630Y-79834825D01*
X103065764Y-79792190D01*
X103654205Y-79508854D01*
X104189874Y-79057793D01*
X104617064Y-78497043D01*
X104873514Y-77908972D01*
X104928869Y-77509063D01*
X104927623Y-77002345D01*
X104875400Y-76499042D01*
X104782300Y-76120818D01*
X104675812Y-76085523D01*
X104473387Y-76194454D01*
G36*
X108720667Y-74711812D02*
G01*
X107969417Y-74715899D01*
X107405349Y-74728243D01*
X106989918Y-74752152D01*
X106684583Y-74790933D01*
X106450802Y-74847894D01*
X106256769Y-74923269D01*
X105834247Y-75228743D01*
X105556417Y-75664367D01*
X105434718Y-76178033D01*
X105480585Y-76717631D01*
X105705458Y-77231052D01*
X105739375Y-77280557D01*
X105929307Y-77499283D01*
X106177099Y-77668512D01*
X106546795Y-77826089D01*
X106822617Y-77920624D01*
X106899622Y-77972009D01*
X106887247Y-78069373D01*
X106766238Y-78240731D01*
X106517337Y-78514101D01*
X106173506Y-78865036D01*
X105821679Y-79226037D01*
X105538384Y-79530231D01*
X105356405Y-79741535D01*
X105305778Y-79820053D01*
X105410375Y-79855769D01*
X105691066Y-79883642D01*
X106098204Y-79899770D01*
X106351411Y-79902222D01*
X107397045Y-79902222D01*
X109060745Y-78235744D01*
X110724444Y-76569266D01*
X110724444Y-76064000D01*
X109073352Y-76064000D01*
X108748889Y-76402666D01*
X108516811Y-76609570D01*
X108276841Y-76710293D01*
X107931872Y-76740575D01*
X107828629Y-76741333D01*
X107450468Y-76722788D01*
X107232815Y-76654249D01*
X107115972Y-76522977D01*
X107024062Y-76318197D01*
X107031690Y-76185142D01*
X107169381Y-76108588D01*
X107467660Y-76073308D01*
X107957054Y-76064080D01*
X108036232Y-76064000D01*
X109073352Y-76064000D01*
X110724444Y-76064000D01*
X110724444Y-74709333D01*
X108720667Y-74711812D01*
G37*
X108720667Y-74711812D02*
X107969417Y-74715899D01*
X107405349Y-74728243D01*
X106989918Y-74752152D01*
X106684583Y-74790933D01*
X106450802Y-74847894D01*
X106256769Y-74923269D01*
X105834247Y-75228743D01*
X105556417Y-75664367D01*
X105434718Y-76178033D01*
X105480585Y-76717631D01*
X105705458Y-77231052D01*
X105739375Y-77280557D01*
X105929307Y-77499283D01*
X106177099Y-77668512D01*
X106546795Y-77826089D01*
X106822617Y-77920624D01*
X106899622Y-77972009D01*
X106887247Y-78069373D01*
X106766238Y-78240731D01*
X106517337Y-78514101D01*
X106173506Y-78865036D01*
X105821679Y-79226037D01*
X105538384Y-79530231D01*
X105356405Y-79741535D01*
X105305778Y-79820053D01*
X105410375Y-79855769D01*
X105691066Y-79883642D01*
X106098204Y-79899770D01*
X106351411Y-79902222D01*
X107397045Y-79902222D01*
X109060745Y-78235744D01*
X110724444Y-76569266D01*
X110724444Y-76064000D01*
X109073352Y-76064000D01*
X108748889Y-76402666D01*
X108516811Y-76609570D01*
X108276841Y-76710293D01*
X107931872Y-76740575D01*
X107828629Y-76741333D01*
X107450468Y-76722788D01*
X107232815Y-76654249D01*
X107115972Y-76522977D01*
X107024062Y-76318197D01*
X107031690Y-76185142D01*
X107169381Y-76108588D01*
X107467660Y-76073308D01*
X107957054Y-76064080D01*
X108036232Y-76064000D01*
X109073352Y-76064000D01*
X110724444Y-76064000D01*
X110724444Y-74709333D01*
X108720667Y-74711812D01*
G36*
X112962346Y-76067420D02*
G01*
X112690289Y-76306161D01*
X112392829Y-76596688D01*
X111740444Y-77242265D01*
X111740444Y-79902222D01*
X113433778Y-79902222D01*
X113433778Y-77926666D01*
X113431072Y-77145277D01*
X113414643Y-76573732D01*
X113372024Y-76196104D01*
X113290746Y-75996462D01*
X113158343Y-75958877D01*
X112962346Y-76067420D01*
G37*
X112962346Y-76067420D02*
X112690289Y-76306161D01*
X112392829Y-76596688D01*
X111740444Y-77242265D01*
X111740444Y-79902222D01*
X113433778Y-79902222D01*
X113433778Y-77926666D01*
X113431072Y-77145277D01*
X113414643Y-76573732D01*
X113372024Y-76196104D01*
X113290746Y-75996462D01*
X113158343Y-75958877D01*
X112962346Y-76067420D01*
G36*
X121862907Y-74555601D02*
G01*
X121607633Y-74744950D01*
X121291769Y-75031649D01*
X120954142Y-75375122D01*
X120633581Y-75734791D01*
X120368912Y-76070081D01*
X120198963Y-76340414D01*
X120159923Y-76446764D01*
X119948799Y-76993346D01*
X119566226Y-77456536D01*
X119062507Y-77795391D01*
X118487945Y-77968967D01*
X118272374Y-77983111D01*
X118054681Y-78008585D01*
X117840994Y-78106120D01*
X117582770Y-78307385D01*
X117231470Y-78644049D01*
X117180055Y-78695757D01*
X116473744Y-79408403D01*
X116715063Y-79627090D01*
X116970634Y-79748786D01*
X117391843Y-79834569D01*
X117921205Y-79883035D01*
X118501234Y-79892779D01*
X119074444Y-79862397D01*
X119583348Y-79790485D01*
X119898165Y-79704847D01*
X120610129Y-79334595D01*
X121250360Y-78796004D01*
X121786618Y-78134173D01*
X122186663Y-77394202D01*
X122418255Y-76621191D01*
X122463175Y-76116670D01*
X122431333Y-75667326D01*
X122349677Y-75220144D01*
X122235068Y-74836303D01*
X122104368Y-74576985D01*
X122018763Y-74504180D01*
X121862907Y-74555601D01*
G37*
X121862907Y-74555601D02*
X121607633Y-74744950D01*
X121291769Y-75031649D01*
X120954142Y-75375122D01*
X120633581Y-75734791D01*
X120368912Y-76070081D01*
X120198963Y-76340414D01*
X120159923Y-76446764D01*
X119948799Y-76993346D01*
X119566226Y-77456536D01*
X119062507Y-77795391D01*
X118487945Y-77968967D01*
X118272374Y-77983111D01*
X118054681Y-78008585D01*
X117840994Y-78106120D01*
X117582770Y-78307385D01*
X117231470Y-78644049D01*
X117180055Y-78695757D01*
X116473744Y-79408403D01*
X116715063Y-79627090D01*
X116970634Y-79748786D01*
X117391843Y-79834569D01*
X117921205Y-79883035D01*
X118501234Y-79892779D01*
X119074444Y-79862397D01*
X119583348Y-79790485D01*
X119898165Y-79704847D01*
X120610129Y-79334595D01*
X121250360Y-78796004D01*
X121786618Y-78134173D01*
X122186663Y-77394202D01*
X122418255Y-76621191D01*
X122463175Y-76116670D01*
X122431333Y-75667326D01*
X122349677Y-75220144D01*
X122235068Y-74836303D01*
X122104368Y-74576985D01*
X122018763Y-74504180D01*
X121862907Y-74555601D01*
G36*
X80131555Y-79394222D02*
G01*
X79518379Y-80015111D01*
X83179555Y-80015111D01*
X83179555Y-78773333D01*
X80744732Y-78773333D01*
X80131555Y-79394222D01*
G37*
X80131555Y-79394222D02*
X79518379Y-80015111D01*
X83179555Y-80015111D01*
X83179555Y-78773333D01*
X80744732Y-78773333D01*
X80131555Y-79394222D01*
G36*
X110344231Y-77383626D02*
G01*
X110073963Y-77590339D01*
X109755987Y-77885670D01*
X109669184Y-77974730D01*
X109355009Y-78310593D01*
X109165795Y-78551111D01*
X109069861Y-78763544D01*
X109035527Y-79015149D01*
X109031111Y-79329397D01*
X109031111Y-80015111D01*
X110724444Y-80015111D01*
X110724444Y-78660444D01*
X110721762Y-78087050D01*
X110709907Y-77702311D01*
X110683168Y-77469128D01*
X110635831Y-77350405D01*
X110562185Y-77309044D01*
X110515851Y-77305777D01*
X110344231Y-77383626D01*
G37*
X110344231Y-77383626D02*
X110073963Y-77590339D01*
X109755987Y-77885670D01*
X109669184Y-77974730D01*
X109355009Y-78310593D01*
X109165795Y-78551111D01*
X109069861Y-78763544D01*
X109035527Y-79015149D01*
X109031111Y-79329397D01*
X109031111Y-80015111D01*
X110724444Y-80015111D01*
X110724444Y-78660444D01*
X110721762Y-78087050D01*
X110709907Y-77702311D01*
X110683168Y-77469128D01*
X110635831Y-77350405D01*
X110562185Y-77309044D01*
X110515851Y-77305777D01*
X110344231Y-77383626D01*
D13*
%TO.C,BT1*%
X120568800Y-123261600D02*
X120568800Y-120416800D01*
X120568800Y-115438400D02*
X120568800Y-118283200D01*
X123312000Y-123261600D02*
X120568800Y-123261600D01*
X123312000Y-115438400D02*
X120568800Y-115438400D01*
X145105200Y-119350000D02*
G75*
G03*
X145105200Y-119350000I-11226800J0D01*
G01*
D14*
X128566000Y-124350000D02*
X128566000Y-114350000D01*
X131066000Y-121350000D02*
X131066000Y-117350000D01*
X133566000Y-124350000D02*
X133566000Y-114350000D01*
X136066000Y-121350000D02*
X136066000Y-117350000D01*
D15*
X121346000Y-119350000D02*
X128566000Y-119350000D01*
X136066000Y-119350000D02*
X141346000Y-119350000D01*
D10*
X143560571Y-118564285D02*
X143608190Y-118707142D01*
X143655809Y-118754761D01*
X143751047Y-118802380D01*
X143893904Y-118802380D01*
X143989142Y-118754761D01*
X144036761Y-118707142D01*
X144084380Y-118611904D01*
X144084380Y-118230952D01*
X143084380Y-118230952D01*
X143084380Y-118564285D01*
X143132000Y-118659523D01*
X143179619Y-118707142D01*
X143274857Y-118754761D01*
X143370095Y-118754761D01*
X143465333Y-118707142D01*
X143512952Y-118659523D01*
X143560571Y-118564285D01*
X143560571Y-118230952D01*
X143084380Y-119088095D02*
X143084380Y-119659523D01*
X144084380Y-119373809D02*
X143084380Y-119373809D01*
X144084380Y-120516666D02*
X144084380Y-119945238D01*
X144084380Y-120230952D02*
X143084380Y-120230952D01*
X143227238Y-120135714D01*
X143322476Y-120040476D01*
X143370095Y-119945238D01*
%TD*%
M02*
